<svg width="24" height="24" viewBox="0 0 24 24" fill="none" xmlns="http:
<g clip-path="url(#clip0_16364_5234)">
<path d="M12 24C18.6274 24 24 18.6274 24 12C24 5.37258 18.6274 0 12 0C5.37258 0 0 5.37258 0 12C0 18.6274 5.37258 24 12 24Z" fill="#C4A939"/>
<path d="M13.6802 6.54004H7.1582V9.01684H8.6294V14.9832H7.1582V17.46H13.6802C16.0106 17.46 17.9006 15.0156 17.9006 12C17.9006 8.98444 16.0154 6.54004 13.6802 6.54004ZM12.527 14.9832H11.6834V9.01684H12.5318C13.6574 9.01684 14.5718 10.3512 14.5718 12C14.5718 13.6488 13.6574 14.9832 12.5318 14.9832H12.527Z" fill="white"/>
</g>
<defs>
<clipPath id="clip0_16364_5234">
<rect width="24" height="24" fill="white"/>
</clipPath>
</defs>
</svg>
