<svg width="24" height="24" viewBox="0 0 24 24" fill="none" xmlns="http:
<g clip-path="url(#clip0_16364_1843)">
<path d="M12 24C18.6274 24 24 18.6274 24 12C24 5.37258 18.6274 0 12 0C5.37258 0 0 5.37258 0 12C0 18.6274 5.37258 24 12 24Z" fill="#F3BC36"/>
<path fill-rule="evenodd" clip-rule="evenodd" d="M9.39719 10.9272L12 8.32319L14.61 10.9332L16.1256 9.41759L12 5.29199L7.88039 9.41039L9.39719 10.9272ZM5.29199 12L6.80759 10.4844L8.32319 12L6.80759 13.5156L5.29199 12ZM9.39719 13.08L12 15.6768L14.61 13.0668L16.1256 14.5824L12 18.7092L7.88039 14.5896L9.39719 13.08ZM15.6768 12L17.1924 10.4844L18.7092 12L17.1924 13.5156L15.6768 12ZM13.5432 12L12 13.536L10.464 12L10.7316 11.7312L10.866 11.598L12 10.464L13.5432 12Z" fill="white"/>
</g>
<defs>
<clipPath id="clip0_16364_1843">
<rect width="24" height="24" fill="white"/>
</clipPath>
</defs>
</svg>
