<svg width="24" height="24" viewBox="0 0 24 24" fill="none" xmlns="http:
<g clip-path="url(#clip0_16364_5238)">
<path d="M12 24C18.6274 24 24 18.6274 24 12C24 5.37258 18.6274 0 12 0C5.37258 0 0 5.37258 0 12C0 18.6274 5.37258 24 12 24Z" fill="#1352E4"/>
<path d="M15.3717 9.31805L11.9997 4.67285L8.62771 9.31805L7.19971 16.2145L11.9997 19.1329L16.8057 16.2145L15.3717 9.31805ZM14.9517 10.8505L15.9945 15.8617L12.5805 17.9341L14.9517 10.8505ZM14.6313 9.53045L11.9997 17.3905L9.36811 9.52925L11.9997 5.90405L14.6313 9.53045ZM9.04771 10.8505L11.4189 17.9305L8.00611 15.8617L9.04771 10.8505Z" fill="white"/>
</g>
<defs>
<clipPath id="clip0_16364_5238">
<rect width="24" height="24" fill="white"/>
</clipPath>
</defs>
</svg>
