<svg width="24" height="24" viewBox="0 0 24 24" fill="none" xmlns="http:
<path d="M12 24C18.6274 24 24 18.6274 24 12C24 5.37258 18.6274 0 12 0C5.37258 0 0 5.37258 0 12C0 18.6274 5.37258 24 12 24Z" fill="#E84142"/>
<path fill-rule="evenodd" clip-rule="evenodd" d="M17.268 14.7795L15.918 12.4671C15.7236 12.1443 15.63 11.9871 15.5076 11.9211C15.4413 11.8857 15.3673 11.8672 15.2922 11.8672C15.2171 11.8672 15.1431 11.8857 15.0768 11.9211C14.9568 11.9859 14.8548 12.1515 14.6604 12.4959L13.32 14.8011C13.1256 15.1383 13.0332 15.3111 13.0332 15.4479C13.037 15.5236 13.0584 15.5974 13.0957 15.6635C13.133 15.7295 13.1851 15.7859 13.248 15.8283C13.4794 15.9068 13.7257 15.9314 13.968 15.9003H16.6608C16.9037 15.9323 17.1507 15.9051 17.3808 15.8211C17.4434 15.7801 17.4956 15.7249 17.5331 15.6601C17.5706 15.5953 17.5924 15.5227 17.5968 15.4479C17.598 15.3111 17.49 15.1455 17.268 14.7795Z" fill="white"/>
<path fill-rule="evenodd" clip-rule="evenodd" d="M13.95 9.72023C14.0004 9.50514 14.0004 9.28131 13.95 9.06623C13.8586 8.79772 13.7332 8.54203 13.5768 8.30543L12.6168 6.63863C12.4224 6.29423 12.3216 6.12143 12.192 6.05783C12.1257 6.02243 12.0517 6.00391 11.9766 6.00391C11.9014 6.00391 11.8275 6.02243 11.7612 6.05783C11.6328 6.12143 11.532 6.29783 11.3376 6.63863L6.68878 14.801C6.49558 15.1382 6.40918 15.311 6.40918 15.455C6.41288 15.5298 6.43428 15.6026 6.47163 15.6675C6.50897 15.7324 6.56119 15.7875 6.62398 15.8282C6.85511 15.9079 7.10165 15.9326 7.34398 15.9002H9.23158C9.51976 15.9159 9.80879 15.899 10.0932 15.8498C10.3085 15.7832 10.5053 15.6674 10.668 15.5114C10.8579 15.2941 11.0174 15.0518 11.142 14.7914L13.5768 10.4822C13.7328 10.245 13.8582 9.98894 13.95 9.72023Z" fill="white"/>
</svg>
