<svg width="24" height="24" viewBox="0 0 24 24" fill="none" xmlns="http:
<g clip-path="url(#clip0_16364_1855)">
<path d="M12 24C18.6274 24 24 18.6274 24 12C24 5.37258 18.6274 0 12 0C5.37258 0 0 5.37258 0 12C0 18.6274 5.37258 24 12 24Z" fill="#393753"/>
<path d="M11.9772 17.9798C15.2942 17.9798 17.9832 15.2908 17.9832 11.9738C17.9832 8.65675 15.2942 5.96777 11.9772 5.96777C8.66017 5.96777 5.97119 8.65675 5.97119 11.9738C5.97119 15.2908 8.66017 17.9798 11.9772 17.9798Z" fill="#22253C"/>
<path d="M11.9997 3.14062C10.9449 3.14062 10.0161 7.10902 10.0161 11.9954C10.0161 16.8818 10.9017 20.8598 11.9997 20.8598C13.0977 20.8598 13.9821 16.8602 13.9821 12.0002C13.9821 7.14023 13.0965 3.14062 11.9997 3.14062ZM12.1365 20.3534C12.1114 20.3869 12.0741 20.409 12.0328 20.4151C11.9914 20.4212 11.9493 20.4107 11.9157 20.3858C11.9037 20.3763 11.8929 20.3654 11.8833 20.3534C11.528 19.8516 11.2737 19.2855 11.1345 18.6866C10.2477 15.8582 10.4589 9.76823 10.4589 9.76823C10.8693 4.97663 11.6397 3.84023 11.8797 3.58343C11.9079 3.56011 11.9433 3.54735 11.9799 3.54735C12.0165 3.54735 12.0519 3.56011 12.0801 3.58343C12.4048 3.98601 12.6389 4.45383 12.7665 4.95503C13.3292 7.11953 13.6115 9.34737 13.6065 11.5838C13.6235 13.5672 13.4682 15.5482 13.1421 17.5046C12.6945 19.8578 12.1353 20.3534 12.1353 20.3534H12.1365Z" fill="#6F7390"/>
<path d="M19.6798 7.5937C19.1302 6.6445 15.2578 7.8469 11.0146 10.2853C6.77141 12.7237 3.77741 15.4561 4.31981 16.4065C4.86221 17.3569 8.74181 16.1533 12.9958 13.6945C17.2498 11.2357 20.2354 8.5117 19.687 7.5745L19.6798 7.5937ZM4.82141 16.2793C4.79578 16.2818 4.76991 16.278 4.74606 16.2683C4.72221 16.2586 4.70109 16.2432 4.68454 16.2234C4.668 16.2037 4.65651 16.1802 4.65108 16.155C4.64566 16.1298 4.64646 16.1037 4.65341 16.0789C4.90773 15.5206 5.26566 15.0157 5.70821 14.5909C7.72421 12.4165 13.0966 9.5677 13.0966 9.5677C17.497 7.5277 18.8566 7.6153 19.207 7.7101C19.2451 7.71713 19.2789 7.73874 19.3014 7.77034C19.3238 7.80193 19.333 7.84102 19.327 7.8793C19.327 8.3329 18.487 9.1453 18.487 9.1453C16.9038 10.7063 15.1298 12.061 13.207 13.1773C11.49 14.176 9.69113 15.0266 7.82981 15.7201C5.56061 16.5325 4.84301 16.2793 4.84301 16.2793H4.82141Z" fill="#6F7390"/>
<path d="M19.6609 16.4402C20.2093 15.491 17.2225 12.7358 12.9913 10.2878C8.76009 7.83982 4.88529 6.61222 4.33689 7.56022C3.78849 8.50822 6.77529 11.2538 11.0065 13.6922C15.2377 16.1306 19.1125 17.3882 19.6609 16.4402ZM4.69569 7.92022C4.68514 7.9022 4.67827 7.88226 4.67546 7.86157C4.67264 7.84087 4.67395 7.81983 4.67931 7.79964C4.68466 7.77945 4.69395 7.76052 4.70665 7.74394C4.71934 7.72736 4.7352 7.71345 4.75329 7.70302C4.76514 7.6966 4.7776 7.69137 4.79049 7.68742C5.40163 7.62503 6.01909 7.68624 6.60609 7.86742C9.52929 8.52022 14.6689 11.7602 14.6689 11.7602C18.6373 14.5358 19.2493 15.7598 19.3333 16.109C19.3441 16.1439 19.3415 16.1816 19.326 16.2147C19.3104 16.2478 19.2831 16.2739 19.2493 16.2878C18.7428 16.3705 18.2244 16.3419 17.7301 16.2038C15.5762 15.6051 13.5081 14.7324 11.5765 13.607C9.85381 12.6301 8.21891 11.5059 6.69009 10.247C4.84329 8.68102 4.69569 7.92022 4.69569 7.92022Z" fill="#6F7390"/>
<path d="M11.9778 13.0191C12.5551 13.0191 13.023 12.5512 13.023 11.9739C13.023 11.3967 12.5551 10.9287 11.9778 10.9287C11.4006 10.9287 10.9326 11.3967 10.9326 11.9739C10.9326 12.5512 11.4006 13.0191 11.9778 13.0191Z" fill="#B7B9C8"/>
<path d="M16.2521 8.59716C16.5841 8.59716 16.8533 8.31833 16.8533 7.97436C16.8533 7.6304 16.5841 7.35156 16.2521 7.35156C15.92 7.35156 15.6509 7.6304 15.6509 7.97436C15.6509 8.31833 15.92 8.59716 16.2521 8.59716Z" fill="#B7B9C8"/>
<path d="M6.33167 10.7285C6.6637 10.7285 6.93287 10.4497 6.93287 10.1057C6.93287 9.76175 6.6637 9.48291 6.33167 9.48291C5.99963 9.48291 5.73047 9.76175 5.73047 10.1057C5.73047 10.4497 5.99963 10.7285 6.33167 10.7285Z" fill="#B7B9C8"/>
<path d="M10.7535 18.3901C11.0856 18.3901 11.3547 18.1113 11.3547 17.7673C11.3547 17.4234 11.0856 17.1445 10.7535 17.1445C10.4215 17.1445 10.1523 17.4234 10.1523 17.7673C10.1523 18.1113 10.4215 18.3901 10.7535 18.3901Z" fill="#B7B9C8"/>
</g>
<defs>
<clipPath id="clip0_16364_1855">
<rect width="24" height="24" fill="white"/>
</clipPath>
</defs>
</svg>
