<svg width="24" height="24" viewBox="0 0 24 24" fill="none" xmlns="http:
<path d="M12 24C18.6274 24 24 18.6274 24 12C24 5.37258 18.6274 0 12 0C5.37258 0 0 5.37258 0 12C0 18.6274 5.37258 24 12 24Z" fill="#0BC08E"/>
<path d="M15.3688 8.78555C14.9464 7.53155 13.7452 7.36115 12.3196 7.55195L11.9128 5.79395L10.8328 6.04475L11.2324 7.77395L10.3672 7.97435L9.96638 6.24035L8.89958 6.49235L9.30998 8.26355L7.12598 8.76995L7.39358 9.92075L8.17478 9.73955C8.31456 9.69309 8.46679 9.70159 8.60052 9.76334C8.73426 9.82508 8.83947 9.93542 8.89478 10.0719L10.0252 14.9547C10.0338 15.0062 10.0319 15.0588 10.0198 15.1095C10.0076 15.1603 9.98537 15.208 9.95438 15.2499C9.92515 15.2933 9.88723 15.3301 9.84302 15.358C9.79881 15.3858 9.74928 15.4042 9.69758 15.4119L8.91638 15.5931L9.01478 16.9203L11.1748 16.4187L11.5936 18.2259L12.682 17.9739L12.2632 16.1667L13.1284 15.9663L13.5388 17.7387L14.6188 17.4891L14.2048 15.7035C16.0048 15.1683 17.1724 14.4279 16.9372 12.6819C16.9361 12.4334 16.886 12.1876 16.7898 11.9585C16.6935 11.7294 16.5531 11.5215 16.3764 11.3467C16.1997 11.1719 15.9903 11.0337 15.7602 10.94C15.53 10.8462 15.2837 10.7988 15.0352 10.8003C14.9788 10.8003 14.9236 10.8003 14.8684 10.8087C15.1629 10.5737 15.3716 10.2479 15.4621 9.88211C15.5526 9.51628 15.5198 9.13082 15.3688 8.78555ZM14.7436 12.9723C15.0544 14.3115 12.724 14.6895 11.992 14.8599L11.44 12.4803C12.1732 12.3111 14.4196 11.5707 14.7436 12.9723ZM13.4668 9.74075C13.7488 10.9611 11.8036 11.2575 11.1868 11.4003L10.6888 9.24035C11.3032 9.09515 13.1692 8.45795 13.4668 9.74075Z" fill="white"/>
</svg>
