<svg width="24" height="24" viewBox="0 0 24 24" fill="none" xmlns="http:
<g clip-path="url(#clip0_16364_1851)">
<path d="M12 24C18.6274 24 24 18.6274 24 12C24 5.37258 18.6274 0 12 0C5.37258 0 0 5.37258 0 12C0 18.6274 5.37258 24 12 24Z" fill="#0939B1"/>
<path d="M8.7782 11.9513C8.76477 12.2046 8.85214 12.453 9.02122 12.6421C9.19031 12.8312 9.42737 12.9457 9.6806 12.9605H9.737C9.92462 12.9603 10.108 12.905 10.2646 12.8016C10.4212 12.6983 10.544 12.5513 10.6179 12.3788C10.6919 12.2064 10.7137 12.0161 10.6806 11.8314C10.6476 11.6467 10.5611 11.4758 10.432 11.3397C10.3028 11.2036 10.1366 11.1083 9.95393 11.0657C9.77123 11.023 9.58004 11.0348 9.40398 11.0996C9.22791 11.1644 9.0747 11.2794 8.96327 11.4304C8.85185 11.5813 8.78709 11.7616 8.777 11.9489L8.7782 11.9513Z" fill="white"/>
<path d="M5.16642 11.709C5.09021 11.71 5.01714 11.7395 4.96161 11.7917C4.90608 11.8439 4.87212 11.915 4.86642 11.991V12.0006C4.86344 12.0821 4.89236 12.1615 4.94704 12.222C5.00172 12.2825 5.07784 12.3193 5.15922 12.3246C5.23229 12.3134 5.29901 12.2766 5.34748 12.2208C5.39596 12.165 5.42304 12.0938 5.42391 12.0198C5.42477 11.9459 5.39936 11.8741 5.35221 11.8172C5.30505 11.7602 5.23921 11.7219 5.16642 11.709Z" fill="white"/>
<path d="M8.71819 6.3762C8.79115 6.33808 8.84609 6.27268 8.87104 6.19423C8.89599 6.11579 8.88893 6.03066 8.85139 5.9574C8.81338 5.8843 8.74847 5.82881 8.67035 5.80262C8.59223 5.77644 8.50699 5.78159 8.43259 5.817C8.36296 5.85737 8.31146 5.92291 8.2887 6.00012C8.26595 6.07733 8.27367 6.16032 8.31028 6.232C8.34689 6.30369 8.4096 6.3586 8.48549 6.38542C8.56138 6.41225 8.64467 6.40895 8.71819 6.3762Z" fill="white"/>
<path d="M9.62314 8.10614C9.64646 8.09688 9.66895 8.08563 9.69035 8.07254C9.75225 8.05123 9.80915 8.01748 9.85753 7.97336C9.90591 7.92925 9.94476 7.8757 9.97167 7.81601C9.99859 7.75633 10.013 7.69177 10.0141 7.6263C10.0151 7.56083 10.0027 7.49585 9.97773 7.43534C9.95272 7.37483 9.9156 7.32007 9.86864 7.27444C9.82169 7.22881 9.76589 7.19327 9.70469 7.17C9.64349 7.14674 9.57818 7.13623 9.51277 7.13915C9.44736 7.14206 9.38324 7.15832 9.32435 7.18694C9.30141 7.1962 9.27933 7.20744 9.25835 7.22054C9.15204 7.27557 9.07014 7.36833 9.0287 7.48064C8.98726 7.59294 8.98928 7.71667 9.03436 7.82756C9.07944 7.93845 9.16432 8.02849 9.27236 8.08003C9.3804 8.13157 9.5038 8.14088 9.61835 8.10614H9.62314Z" fill="white"/>
<path d="M6.97227 9.18754C7.03914 9.10553 7.07075 9.00036 7.06018 8.89508C7.04961 8.78979 6.99771 8.693 6.91587 8.62594C6.89318 8.60747 6.86865 8.59139 6.84267 8.57794C6.77541 8.54403 6.69993 8.52982 6.62494 8.53695C6.54995 8.54409 6.4785 8.57227 6.41884 8.61826C6.35917 8.66425 6.31373 8.72616 6.28773 8.79686C6.26174 8.86756 6.25625 8.94417 6.27192 9.01785C6.28758 9.09154 6.32376 9.15929 6.37626 9.2133C6.42877 9.26731 6.49548 9.30538 6.56869 9.32312C6.6419 9.34086 6.71863 9.33754 6.79004 9.31355C6.86145 9.28956 6.92462 9.24588 6.97227 9.18754Z" fill="white"/>
<path d="M6.99762 11.5325C6.90279 11.5272 6.80852 11.5501 6.72673 11.5984C6.64494 11.6467 6.57931 11.7181 6.53815 11.8037C6.49699 11.8893 6.48214 11.9852 6.49549 12.0792C6.50884 12.1732 6.54978 12.2612 6.61314 12.3319C6.6765 12.4027 6.75942 12.4531 6.85142 12.4767C6.94341 12.5003 7.04034 12.4961 7.12994 12.4646C7.21954 12.4331 7.29778 12.3757 7.35475 12.2997C7.41173 12.2237 7.44489 12.1325 7.45002 12.0377C7.45342 11.9746 7.44434 11.9115 7.42331 11.852C7.40228 11.7925 7.3697 11.7376 7.32746 11.6907C7.28521 11.6438 7.23411 11.6057 7.1771 11.5785C7.12009 11.5514 7.05828 11.5357 6.99522 11.5325H6.99762Z" fill="white"/>
<path d="M6.46347 14.7533C6.37036 14.7999 6.29952 14.8815 6.26646 14.9802C6.2334 15.079 6.24081 15.1868 6.28707 15.2801C6.33481 15.3735 6.4177 15.4441 6.5175 15.4764C6.61731 15.5087 6.72586 15.5 6.81927 15.4523C6.91268 15.4045 6.98329 15.3216 7.01559 15.2218C7.04788 15.122 7.03921 15.0135 6.99147 14.9201C6.94226 14.8292 6.85969 14.7611 6.76118 14.7299C6.66267 14.6988 6.55593 14.7072 6.46347 14.7533Z" fill="white"/>
<path d="M8.32579 10.5414C8.44657 10.6307 8.59787 10.6683 8.7464 10.646C8.89493 10.6237 9.02852 10.5434 9.11779 10.4226C9.20706 10.3018 9.2447 10.1505 9.22242 10.002C9.20014 9.85345 9.11977 9.71985 8.99899 9.63058C8.98253 9.61829 8.96529 9.60706 8.94739 9.59698C8.88736 9.5563 8.8199 9.52785 8.74887 9.51325C8.67783 9.49866 8.60462 9.4982 8.53341 9.5119C8.4622 9.52561 8.39439 9.55321 8.33385 9.59314C8.27331 9.63306 8.22124 9.68452 8.18059 9.74458L8.16859 9.76258C8.08638 9.88592 8.05651 10.0369 8.08554 10.1822C8.11456 10.3276 8.20012 10.4555 8.32339 10.5378L8.32579 10.5414Z" fill="white"/>
<path d="M14.2419 8.04028C14.2946 8.07482 14.3537 8.09863 14.4157 8.11033C14.4777 8.12203 14.5414 8.1214 14.6031 8.10847C14.6649 8.09554 14.7234 8.07057 14.7755 8.03499C14.8276 7.9994 14.8722 7.9539 14.9067 7.90107C14.9771 7.79535 15.0028 7.66601 14.978 7.5414C14.9533 7.41678 14.8802 7.30706 14.7747 7.23628C14.6684 7.16666 14.539 7.14196 14.4146 7.1676C14.2902 7.19324 14.1811 7.26713 14.1111 7.37308C14.0757 7.42399 14.0507 7.4814 14.0375 7.54201C14.0244 7.60262 14.0234 7.66523 14.0345 7.72624C14.0457 7.78724 14.0688 7.84544 14.1025 7.89748C14.1362 7.94952 14.1799 7.99438 14.2311 8.02948L14.2419 8.04028Z" fill="white"/>
<path d="M15.2261 6.34218C15.2586 6.36449 15.2951 6.38019 15.3336 6.38835C15.3721 6.39651 15.4118 6.39697 15.4505 6.38973C15.4892 6.38248 15.5261 6.36766 15.5591 6.34611C15.592 6.32456 15.6204 6.29672 15.6425 6.26418L15.6521 6.24978C15.6745 6.21638 15.6901 6.17889 15.698 6.13946C15.7059 6.10002 15.706 6.05942 15.6982 6.01996C15.6904 5.98051 15.6749 5.94298 15.6526 5.90952C15.6302 5.87607 15.6016 5.84734 15.5681 5.82498C15.5374 5.79541 15.501 5.77241 15.4612 5.7574C15.4213 5.74238 15.3788 5.73566 15.3362 5.73764C15.2936 5.73963 15.2519 5.75028 15.2136 5.76894C15.1753 5.7876 15.1412 5.81389 15.1134 5.84618C15.0856 5.87848 15.0647 5.9161 15.052 5.95676C15.0392 5.99742 15.0349 6.04025 15.0393 6.08264C15.0436 6.12502 15.0566 6.16607 15.0774 6.20327C15.0982 6.24047 15.1263 6.27304 15.1601 6.29898C15.1802 6.31606 15.2024 6.33057 15.2261 6.34218Z" fill="white"/>
<path d="M13.3037 11.9382C13.2896 12.1923 13.377 12.4416 13.5467 12.6313C13.7163 12.821 13.9544 12.9355 14.2085 12.9498H14.2613C14.4489 12.9495 14.6323 12.8943 14.7889 12.7909C14.9454 12.6875 15.0683 12.5405 15.1422 12.3681C15.2161 12.1957 15.2379 12.0053 15.2049 11.8207C15.1718 11.636 15.0854 11.465 14.9562 11.329C14.8271 11.1929 14.6609 11.0976 14.4782 11.0549C14.2955 11.0123 14.1043 11.0241 13.9282 11.0889C13.7522 11.1537 13.599 11.2687 13.4875 11.4196C13.3761 11.5706 13.3114 11.7508 13.3013 11.9382H13.3037Z" fill="white"/>
<path d="M10.0038 10.4682C10.0994 10.6643 10.2589 10.8219 10.4561 10.9152C10.6533 11.0085 10.8764 11.0319 11.0886 10.9814C11.3008 10.931 11.4896 10.8098 11.6237 10.6377C11.7578 10.4657 11.8294 10.2531 11.8266 10.035C11.8268 9.88443 11.7902 9.73609 11.7198 9.603C11.605 9.37544 11.4046 9.20278 11.1626 9.123C10.9205 9.04323 10.6567 9.06286 10.4292 9.1776C10.2016 9.29233 10.029 9.49276 9.94918 9.73479C9.8694 9.97683 9.88904 10.2406 10.0038 10.4682Z" fill="white"/>
<path d="M17.1689 8.53462C17.0751 8.58282 17.0043 8.66621 16.9719 8.76652C16.9395 8.86684 16.9482 8.9759 16.9961 9.06982C17.0463 9.1625 17.1305 9.23206 17.2311 9.26384C17.3316 9.29563 17.4405 9.28716 17.5349 9.24022C17.5869 9.21997 17.634 9.18907 17.6733 9.1495C17.7127 9.10992 17.7432 9.06255 17.7631 9.01044C17.7831 8.95833 17.7918 8.90262 17.7889 8.84692C17.786 8.79121 17.7714 8.73673 17.7462 8.68699C17.7209 8.63725 17.6855 8.59334 17.6423 8.5581C17.599 8.52286 17.5489 8.49706 17.4951 8.48237C17.4413 8.46768 17.385 8.46442 17.3298 8.4728C17.2747 8.48117 17.2219 8.50101 17.1749 8.53102L17.1689 8.53462Z" fill="white"/>
<path d="M15.1083 9.545H15.0999C15.034 9.57722 14.9751 9.62216 14.9266 9.67723C14.8781 9.7323 14.8409 9.79642 14.8173 9.8659C14.7936 9.93537 14.784 10.0088 14.7888 10.0821C14.7937 10.1553 14.8129 10.2268 14.8455 10.2926C14.8945 10.3931 14.9721 10.4768 15.0685 10.5332C15.165 10.5895 15.276 10.6161 15.3876 10.6094C15.4991 10.6027 15.6062 10.5631 15.6952 10.4955C15.7843 10.428 15.8513 10.3356 15.8878 10.23C15.9244 10.1244 15.9288 10.0103 15.9005 9.90223C15.8723 9.79411 15.8126 9.69681 15.729 9.6226C15.6455 9.54839 15.5418 9.50062 15.4311 9.48531C15.3204 9.47 15.2077 9.48785 15.1071 9.5366L15.1083 9.545Z" fill="white"/>
<path d="M11.9598 6.196C12.037 6.19959 12.1135 6.18034 12.1798 6.14064C12.246 6.10095 12.2991 6.04258 12.3324 5.97285C12.3656 5.90312 12.3775 5.82513 12.3666 5.74866C12.3557 5.67218 12.3225 5.60063 12.2711 5.54296C12.2197 5.48529 12.1524 5.44407 12.0777 5.42447C12.003 5.40486 11.9242 5.40775 11.8511 5.43276C11.778 5.45777 11.7139 5.5038 11.6669 5.56507C11.6198 5.62634 11.5919 5.70013 11.5866 5.77719C11.5832 5.88156 11.62 5.98325 11.6895 6.06121C11.759 6.13917 11.8558 6.18743 11.9598 6.196Z" fill="white"/>
<path d="M11.9513 8.67055H11.9597C12.0711 8.67672 12.1818 8.64977 12.278 8.5931C12.3741 8.53642 12.4513 8.45255 12.4999 8.35206C12.5484 8.25157 12.5661 8.13896 12.5508 8.02843C12.5354 7.91789 12.4877 7.81437 12.4136 7.73093C12.3395 7.64748 12.2423 7.58784 12.1344 7.55952C12.0264 7.5312 11.9125 7.53547 11.807 7.57179C11.7015 7.60811 11.609 7.67486 11.5414 7.76362C11.4738 7.85238 11.4339 7.95917 11.4269 8.07055C11.4213 8.1445 11.4305 8.21881 11.454 8.28916C11.4774 8.35951 11.5146 8.4245 11.5634 8.48034C11.6122 8.53617 11.6717 8.58174 11.7382 8.6144C11.8048 8.64706 11.8772 8.66614 11.9513 8.67055Z" fill="white"/>
<path d="M8.89016 14.4509H8.89856C8.96443 14.4184 9.02326 14.3733 9.0717 14.3181C9.12013 14.2629 9.15722 14.1987 9.18084 14.1291C9.20446 14.0596 9.21416 13.9861 9.20938 13.9128C9.20459 13.8395 9.18542 13.7679 9.15296 13.7021C9.10404 13.6016 9.02644 13.5179 8.92996 13.4615C8.83348 13.4051 8.72245 13.3786 8.61091 13.3853C8.49936 13.392 8.39231 13.4316 8.30327 13.4991C8.21423 13.5667 8.1472 13.6591 8.11066 13.7647C8.07412 13.8703 8.0697 13.9843 8.09797 14.0924C8.12623 14.2005 8.18591 14.2979 8.26946 14.3721C8.353 14.4463 8.45668 14.494 8.56737 14.5094C8.67806 14.5247 8.79081 14.5068 8.89136 14.4581L8.89016 14.4509Z" fill="white"/>
<path d="M12.3257 9.50916C12.2081 9.6878 12.1535 9.90063 12.1706 10.1138C12.1876 10.3271 12.2755 10.5285 12.42 10.6861C12.5646 10.8437 12.7577 10.9486 12.9687 10.9839C13.1797 11.0193 13.3964 10.9832 13.5845 10.8814C13.7726 10.7795 13.9213 10.6178 14.007 10.4218C14.0928 10.2258 14.1106 10.0068 14.0576 9.7996C14.0047 9.59234 13.8841 9.4087 13.7149 9.27782C13.5457 9.14694 13.3376 9.07632 13.1237 9.07716C12.9652 9.07648 12.809 9.11569 12.6695 9.19118C12.5301 9.26667 12.4118 9.37602 12.3257 9.50916Z" fill="white"/>
<path d="M13.9959 13.5363V13.5291C13.9111 13.3591 13.7777 13.2181 13.6128 13.1239C13.4478 13.0297 13.2586 12.9866 13.0691 12.9999C12.8796 13.0133 12.6983 13.0827 12.5482 13.1991C12.3981 13.3156 12.286 13.474 12.2259 13.6542C12.1659 13.8345 12.1607 14.0285 12.211 14.2117C12.2613 14.3949 12.3648 14.559 12.5084 14.6834C12.6521 14.8077 12.8294 14.8867 13.0179 14.9102C13.2064 14.9337 13.3977 14.9008 13.5675 14.8155C13.6797 14.7598 13.7798 14.6824 13.8621 14.5879C13.9444 14.4934 14.0072 14.3836 14.047 14.2648C14.0868 14.146 14.1028 14.0205 14.094 13.8955C14.0852 13.7705 14.0519 13.6484 13.9959 13.5363Z" fill="white"/>
<path d="M15.6725 13.4549C15.5517 13.366 15.4005 13.3286 15.2522 13.3511C15.1039 13.3736 14.9706 13.4541 14.8817 13.5749C14.7927 13.6957 14.7554 13.8469 14.7779 13.9952C14.8004 14.1435 14.8809 14.2768 15.0017 14.3657C15.0181 14.3784 15.0353 14.39 15.0533 14.4005C15.1134 14.4411 15.1809 14.4695 15.252 14.484C15.3231 14.4985 15.3963 14.4989 15.4675 14.4851C15.5387 14.4712 15.6065 14.4435 15.667 14.4035C15.7275 14.3634 15.7795 14.3119 15.8201 14.2517L15.8321 14.2337C15.9143 14.1104 15.9442 13.9594 15.9151 13.8141C15.8861 13.6687 15.8005 13.5408 15.6773 13.4585L15.6725 13.4549Z" fill="white"/>
<path d="M17.0033 12.5046C17.0673 12.508 17.1312 12.4985 17.1915 12.4768C17.2517 12.4551 17.307 12.4216 17.354 12.3782C17.4011 12.3348 17.439 12.2825 17.4656 12.2242C17.4921 12.1659 17.5067 12.103 17.5085 12.039C17.5097 12.0254 17.5097 12.0117 17.5085 11.9982C17.5033 11.9058 17.4714 11.8168 17.4168 11.7421C17.3622 11.6674 17.2871 11.61 17.2006 11.577C17.1141 11.544 17.02 11.5367 16.9294 11.5559C16.8389 11.5752 16.7558 11.6202 16.6903 11.6856C16.6248 11.751 16.5795 11.8339 16.5601 11.9244C16.5406 12.0149 16.5477 12.1091 16.5805 12.1956C16.6133 12.2822 16.6705 12.3574 16.7451 12.4122C16.8197 12.467 16.9085 12.4991 17.0009 12.5046H17.0033Z" fill="white"/>
<path d="M18.8391 11.6715C18.799 11.6689 18.7588 11.6743 18.7207 11.6872C18.6827 11.7001 18.6475 11.7205 18.6173 11.747C18.5871 11.7735 18.5625 11.8057 18.5447 11.8418C18.527 11.8778 18.5165 11.917 18.5139 11.9571V11.9643C18.5111 12.0045 18.5163 12.0449 18.5292 12.0831C18.5421 12.1213 18.5624 12.1565 18.5889 12.1869C18.6154 12.2172 18.6477 12.242 18.6838 12.2598C18.72 12.2776 18.7593 12.2882 18.7995 12.2907H18.8067C18.8888 12.2952 18.9693 12.2669 19.0305 12.2119C19.0918 12.157 19.1287 12.0801 19.1331 11.9979C19.1376 11.9158 19.1092 11.8353 19.0543 11.7741C18.9994 11.7129 18.9224 11.676 18.8403 11.6715H18.8391Z" fill="white"/>
<path d="M17.0259 14.8084C16.9591 14.8904 16.9275 14.9956 16.938 15.1009C16.9486 15.2062 17.0005 15.303 17.0823 15.37C17.1047 15.3889 17.1293 15.405 17.1555 15.418C17.2228 15.452 17.2983 15.4662 17.3733 15.459C17.4483 15.4519 17.5197 15.4237 17.5794 15.3777C17.639 15.3317 17.6845 15.2698 17.7105 15.1991C17.7365 15.1284 17.742 15.0518 17.7263 14.9781C17.7106 14.9044 17.6745 14.8367 17.622 14.7827C17.5694 14.7287 17.5027 14.6906 17.4295 14.6729C17.3563 14.6551 17.2796 14.6584 17.2082 14.6824C17.1368 14.7064 17.0736 14.7501 17.0259 14.8084Z" fill="white"/>
<path d="M8.77245 17.6538C8.70348 17.608 8.6192 17.5914 8.53802 17.6076C8.45685 17.6238 8.38538 17.6715 8.33925 17.7402C8.29543 17.8098 8.28009 17.8937 8.2964 17.9743C8.3127 18.055 8.35941 18.1262 8.42685 18.1734C8.49659 18.2181 8.58121 18.2333 8.66218 18.2158C8.74314 18.1983 8.81386 18.1494 8.85885 18.0798C8.90377 18.0122 8.92016 17.9297 8.90442 17.8501C8.88868 17.7705 8.8421 17.7004 8.77485 17.655L8.77245 17.6538Z" fill="white"/>
<path d="M15.2799 17.62C15.2069 17.6583 15.1519 17.7239 15.127 17.8026C15.102 17.8812 15.1091 17.9665 15.1467 18.04C15.1849 18.1129 15.2499 18.1681 15.328 18.194C15.4061 18.22 15.4913 18.2147 15.5655 18.1792C15.6351 18.1388 15.6866 18.0733 15.7094 17.9961C15.7321 17.9188 15.7244 17.8359 15.6878 17.7642C15.6512 17.6925 15.5885 17.6376 15.5126 17.6108C15.4367 17.5839 15.3534 17.5872 15.2799 17.62Z" fill="white"/>
<path d="M11.6729 14.4869C11.7764 14.3278 11.8304 14.1417 11.8281 13.9519C11.8259 13.7622 11.7674 13.5774 11.6602 13.4209C11.553 13.2644 11.4018 13.1431 11.2257 13.0725C11.0496 13.0018 10.8565 12.9849 10.6708 13.0239C10.4851 13.0629 10.3152 13.1561 10.1824 13.2916C10.0496 13.4272 9.96 13.599 9.92484 13.7855C9.88967 13.9719 9.91054 14.1646 9.98482 14.3392C10.0591 14.5138 10.1834 14.6625 10.3421 14.7665C10.4994 14.866 10.6817 14.9188 10.8677 14.9189C11.0278 14.9224 11.1861 14.8844 11.3271 14.8087C11.4682 14.733 11.5874 14.6222 11.6729 14.4869Z" fill="white"/>
<path d="M9.75661 15.9905C9.70383 15.9559 9.64476 15.9321 9.58277 15.9204C9.52078 15.9087 9.4571 15.9094 9.39536 15.9223C9.33361 15.9352 9.27502 15.9602 9.22294 15.9958C9.17085 16.0314 9.12629 16.0769 9.09181 16.1297C9.02135 16.2354 8.99568 16.3648 9.02042 16.4894C9.04517 16.614 9.1183 16.7237 9.22381 16.7945C9.33002 16.8641 9.45949 16.8888 9.58387 16.8632C9.70824 16.8375 9.81739 16.7636 9.88741 16.6577C9.92282 16.6068 9.94781 16.5494 9.96094 16.4888C9.97407 16.4281 9.97509 16.3655 9.96394 16.3045C9.95279 16.2435 9.92968 16.1853 9.89596 16.1333C9.86223 16.0812 9.81854 16.0364 9.76741 16.0013L9.75661 15.9905Z" fill="white"/>
<path d="M12.0077 17.8013H11.9993C11.8953 17.796 11.7934 17.8323 11.716 17.902C11.6386 17.9717 11.5921 18.0693 11.5865 18.1733C11.5824 18.2507 11.6013 18.3276 11.6408 18.3943C11.6803 18.461 11.7386 18.5146 11.8084 18.5483C11.8782 18.582 11.9564 18.5944 12.0332 18.5838C12.11 18.5732 12.182 18.5402 12.2401 18.4889C12.2982 18.4376 12.3399 18.3702 12.3598 18.2953C12.3798 18.2204 12.3772 18.1413 12.3524 18.0678C12.3276 17.9944 12.2816 17.9299 12.2203 17.8825C12.159 17.8351 12.085 17.8068 12.0077 17.8013Z" fill="white"/>
<path d="M12.0074 15.3256H11.999C11.8876 15.3192 11.7767 15.346 11.6804 15.4025C11.5841 15.459 11.5068 15.5428 11.458 15.6432C11.4093 15.7437 11.3914 15.8563 11.4066 15.9669C11.4219 16.0775 11.4695 16.1812 11.5435 16.2647C11.6176 16.3483 11.7147 16.4081 11.8227 16.4365C11.9306 16.4649 12.0446 16.4607 12.1502 16.4244C12.2558 16.3882 12.3483 16.3214 12.416 16.2327C12.4837 16.1439 12.5236 16.0371 12.5306 15.9256C12.5362 15.8518 12.527 15.7776 12.5036 15.7073C12.4802 15.637 12.4431 15.5721 12.3945 15.5163C12.3458 15.4604 12.2865 15.4148 12.2201 15.3821C12.1536 15.3494 12.0814 15.3302 12.0074 15.3256Z" fill="white"/>
<path d="M14.3081 15.9244C14.2236 15.9679 14.1539 16.0355 14.1079 16.1186C14.0619 16.2017 14.0416 16.2966 14.0495 16.3913C14.0575 16.486 14.0934 16.5762 14.1527 16.6505C14.2119 16.7248 14.2919 16.7798 14.3825 16.8085C14.473 16.8373 14.5701 16.8386 14.6613 16.8122C14.7526 16.7857 14.834 16.7328 14.8952 16.6601C14.9563 16.5874 14.9945 16.4982 15.005 16.4037C15.0154 16.3093 14.9975 16.2139 14.9537 16.1296C14.8951 16.0169 14.7942 15.9321 14.6732 15.8936C14.5523 15.8552 14.4209 15.8662 14.3081 15.9244Z" fill="white"/>
</g>
<defs>
<clipPath id="clip0_16364_1851">
<rect width="24" height="24" fill="white"/>
</clipPath>
</defs>
</svg>
