<svg width="24" height="24" viewBox="0 0 24 24" fill="none" xmlns="http:
<g clip-path="url(#clip0_16364_1859)">
<path d="M12 24C18.6274 24 24 18.6274 24 12C24 5.37258 18.6274 0 12 0C5.37258 0 0 5.37258 0 12C0 18.6274 5.37258 24 12 24Z" fill="#F4B937"/>
<path d="M12.7551 12.6554H16.2207C16.2927 12.6554 16.3251 12.6554 16.3323 12.557C16.3647 12.2041 16.3647 11.849 16.3323 11.4962C16.3323 11.4242 16.2987 11.3978 16.2267 11.3978H9.33633C9.25113 11.3978 9.22473 11.3978 9.22473 11.5094V12.5246C9.22473 12.6554 9.22473 12.6554 9.36273 12.6554H12.7551ZM15.9447 10.2122C15.9512 10.2 15.9546 10.1864 15.9546 10.1726C15.9546 10.1588 15.9512 10.1452 15.9447 10.133C15.8878 10.0073 15.8199 9.88683 15.7419 9.77298C15.6205 9.57983 15.4776 9.40108 15.3159 9.24018C15.2423 9.14211 15.1541 9.05591 15.0543 8.98458C14.5621 8.56329 13.9755 8.26691 13.3443 8.12058C13.0265 8.04898 12.7017 8.01355 12.3759 8.01498H9.33633C9.25113 8.01498 9.23793 8.04858 9.23793 8.12658V10.1462C9.23793 10.2386 9.23793 10.2578 9.34953 10.2578H15.8859C15.8859 10.2578 15.9447 10.2578 15.9519 10.2122H15.9447ZM15.9447 13.841C15.8492 13.8278 15.7523 13.8278 15.6567 13.841H9.33633C9.25113 13.841 9.21633 13.841 9.21633 13.9526V15.917C9.21633 16.0094 9.21633 16.0286 9.33633 16.0286H12.2511C12.3898 16.0514 12.5313 16.0514 12.6699 16.0286C13.0992 15.9936 13.5208 15.8941 13.9203 15.7334C14.0649 15.6865 14.2034 15.6229 14.3331 15.5438H14.3715C15.0466 15.1912 15.5977 14.6406 15.9507 13.9658C15.9507 13.9658 15.9903 13.8806 15.9507 13.8602L15.9447 13.841ZM8.08473 17.0702V13.913C8.08473 13.8338 8.08473 13.8278 7.99353 13.8278H6.72033C6.65433 13.8278 6.62793 13.8278 6.62793 13.7366V12.6566H7.93473C8.00673 12.6566 8.03313 12.6566 8.03313 12.5642V11.4842C8.03313 11.4182 8.03313 11.399 7.94073 11.399H6.72033C6.65433 11.399 6.62793 11.399 6.62793 11.3066V10.3034C6.62793 10.2386 6.62793 10.2254 6.72033 10.2254H7.96713C8.05233 10.2254 8.07153 10.2254 8.07153 10.1138V7.04178C8.07153 6.95058 8.07153 6.93018 8.19153 6.93018H12.4623C12.7717 6.9431 13.08 6.97597 13.3851 7.02858C14.0132 7.14353 14.6173 7.36384 15.1719 7.68018C15.538 7.89616 15.8751 8.15786 16.1751 8.45898C16.3972 8.69396 16.6007 8.94593 16.7835 9.21258C16.9619 9.48918 17.1111 9.78356 17.2287 10.091C17.2363 10.129 17.2582 10.1627 17.29 10.185C17.3217 10.2074 17.3608 10.2167 17.3991 10.211H18.4215C18.5523 10.211 18.5523 10.211 18.5583 10.331V11.2802C18.5583 11.3714 18.5199 11.3906 18.4383 11.3906H17.6403C17.5623 11.3906 17.5419 11.3906 17.5491 11.4962C17.5755 11.8429 17.5755 12.1911 17.5491 12.5378C17.5491 12.6362 17.5491 12.6482 17.6535 12.6482H18.5571C18.5967 12.701 18.5571 12.7466 18.5571 12.7994C18.5643 12.8668 18.5643 12.9348 18.5571 13.0022V13.6574C18.5571 13.7558 18.5571 13.7774 18.4371 13.7774H17.3631C17.3446 13.7735 17.3255 13.7733 17.3069 13.7768C17.2883 13.7804 17.2706 13.7875 17.2548 13.7979C17.239 13.8082 17.2254 13.8216 17.2147 13.8372C17.2041 13.8529 17.1966 13.8705 17.1927 13.889C16.939 14.5555 16.5306 15.1523 16.0011 15.6302C15.8072 15.8054 15.6037 15.9696 15.3915 16.1222C15.1683 16.2582 14.9391 16.3826 14.7039 16.4954C14.2742 16.6899 13.8237 16.8348 13.3611 16.9274C12.9285 17.0027 12.4898 17.038 12.0507 17.033H8.12433L8.08473 17.0702Z" fill="#FEFEFD"/>
</g>
<defs>
<clipPath id="clip0_16364_1859">
<rect width="24" height="24" fill="white"/>
</clipPath>
</defs>
</svg>
