<svg width="28" height="28" viewBox="0 0 28 28" fill="none" xmlns="http:
<g clip-path="url(#clip0_16360_2159)">
<path d="M1.89868 20.8457V25.3844C1.89868 25.6605 2.12303 25.8906 2.4049 25.8906H5.91395C6.19007 25.8906 6.42017 25.6663 6.42017 25.3844V17.3999L3.8718 19.9483C3.33106 20.4833 2.64076 20.7939 1.89868 20.8457Z" fill="#4674FF"/>
<path d="M8.16895 17.3423V25.3843C8.16895 25.6604 8.39329 25.8906 8.67517 25.8906H12.1842C12.4603 25.8906 12.6904 25.6662 12.6904 25.3843V20.65C11.8908 20.6327 11.143 20.3163 10.5793 19.7526L8.16895 17.3423Z" fill="#4674FF"/>
<path d="M14.4392 20.1493V25.3841C14.4392 25.6602 14.6636 25.8903 14.9454 25.8903H18.4545C18.7306 25.8903 18.9607 25.666 18.9607 25.3841V15.7256L14.9397 19.7466C14.7844 19.9019 14.6175 20.0342 14.4392 20.1493Z" fill="#4674FF"/>
<path d="M24.8916 9.78906L20.7095 13.9712V25.3842C20.7095 25.6603 20.9338 25.8904 21.2157 25.8904H24.7247C25.0009 25.8904 25.231 25.6661 25.231 25.3842V10.1055C25.1159 10.0077 25.0296 9.92137 24.9663 9.86384L24.8916 9.78906Z" fill="#4674FF"/>
<path d="M27.762 2.38023C27.5952 2.2019 27.342 2.10986 27.0199 2.10986C26.9911 2.10986 26.9566 2.10986 26.9279 2.10986C25.2941 2.18465 23.6662 2.26518 22.0325 2.33996C21.8139 2.35147 21.5147 2.36297 21.2789 2.59883C21.2041 2.67361 21.1466 2.7599 21.1005 2.86345C20.8589 3.38693 21.1983 3.72633 21.3594 3.8874L21.7678 4.30158C22.0497 4.58921 22.3373 4.87683 22.625 5.15871L12.7536 15.0358L8.31841 10.6006C8.05379 10.336 7.69713 10.1864 7.31747 10.1864C6.9378 10.1864 6.5869 10.336 6.32228 10.6006L0.414427 16.5027C-0.137817 17.0549 -0.137817 17.9466 0.414427 18.4988L0.679043 18.7634C0.94366 19.0281 1.30032 19.1776 1.67998 19.1776C2.05965 19.1776 2.41056 19.0281 2.67517 18.7634L7.31747 14.1212L11.7527 18.5564C12.0173 18.821 12.3739 18.9705 12.7536 18.9705C13.1333 18.9705 13.4842 18.821 13.7546 18.5564L24.8915 7.41945L26.1513 8.6735C26.3008 8.82307 26.5079 9.03016 26.8243 9.03016C26.9566 9.03016 27.0889 8.99565 27.227 8.92086C27.319 8.86909 27.3996 8.81156 27.4686 8.74253C27.716 8.49517 27.762 8.17879 27.7735 7.93143C27.8195 6.87296 27.8713 5.81449 27.923 4.75028L27.9978 3.15682C28.0151 2.82318 27.9403 2.56431 27.762 2.38023Z" fill="#4674FF"/>
</g>
<defs>
<clipPath id="clip0_16360_2159">
<rect width="28" height="28" fill="white"/>
</clipPath>
</defs>
</svg>
