<svg width="25" height="24" viewBox="0 0 25 24" fill="none" xmlns="http:
<path fill-rule="evenodd" clip-rule="evenodd" d="M3.41789 17.7071C3.02737 17.3166 3.02737 16.6834 3.41789 16.2929L7.41789 12.2929C7.80842 11.9024 8.44158 11.9024 8.83211 12.2929C9.22263 12.6834 9.22263 13.3166 8.83211 13.7071L6.53921 16H20.125C20.6773 16 21.125 16.4477 21.125 17C21.125 17.5523 20.6773 18 20.125 18H6.53921L8.83211 20.2929C9.22263 20.6834 9.22263 21.3166 8.83211 21.7071C8.44158 22.0976 7.80842 22.0976 7.41789 21.7071L3.41789 17.7071Z" fill="#666666"/>
<path fill-rule="evenodd" clip-rule="evenodd" d="M20.8321 6.29293C21.2226 6.68343 21.2226 7.31663 20.8321 7.70713L16.8321 11.7071C16.4416 12.0976 15.8084 12.0976 15.4179 11.7071C15.0274 11.3166 15.0274 10.6834 15.4179 10.2929L17.7108 8.00003H4.125C3.57272 8.00003 3.125 7.55233 3.125 7.00003C3.125 6.44773 3.57272 6.00003 4.125 6.00003L17.7108 6.00003L15.4179 3.70712C15.0274 3.31662 15.0274 2.68342 15.4179 2.29292C15.8084 1.90242 16.4416 1.90242 16.8321 2.29292L20.8321 6.29293Z" fill="#666666"/>
</svg>
