<svg width="28" height="28" viewBox="0 0 28 28" fill="none" xmlns="http:
<path fill-rule="evenodd" clip-rule="evenodd" d="M14.0002 1.1665C12.9122 1.1665 11.8543 1.30215 10.843 1.55804C9.89505 1.79792 9.42269 2.61041 9.27367 3.25443C9.13247 3.86471 8.75011 4.41316 8.16689 4.74988C7.63051 5.05958 7.02492 5.13233 6.46533 5.00037C5.82209 4.84869 4.88637 4.91247 4.2514 5.6535C3.22383 6.85271 2.41307 8.24469 1.88106 9.76865C1.51597 10.8144 2.08628 11.7339 2.64914 12.1977C3.17082 12.6275 3.5002 13.2748 3.5002 13.9998C3.5002 14.7249 3.17082 15.3722 2.64914 15.802C2.08628 16.2657 1.51596 17.1852 1.88104 18.231C2.41301 19.7548 3.22364 21.1466 4.25105 22.3458C4.88606 23.0869 5.8219 23.1507 6.46519 22.9989C7.02483 22.867 7.63045 22.9397 8.16688 23.2494C8.75018 23.5861 9.13255 24.1347 9.27372 24.7451C9.42269 25.3892 9.89505 26.2018 10.8431 26.4416C11.8543 26.6975 12.9122 26.8332 14.0002 26.8332C15.0882 26.8332 16.1461 26.6975 17.1574 26.4416C18.1054 26.2018 18.5778 25.3891 18.7268 24.7451C18.868 24.1347 19.2503 23.5861 19.8336 23.2494C20.37 22.9397 20.9755 22.867 21.5352 22.9989C22.1785 23.1506 23.1143 23.0869 23.7493 22.3457C24.7767 21.1466 25.5874 19.7548 26.1193 18.231C26.4844 17.1852 25.914 16.2657 25.3512 15.802C24.8295 15.3722 24.5002 14.7249 24.5002 13.9998C24.5002 13.2748 24.8295 12.6275 25.3512 12.1977C25.914 11.7339 26.4844 10.8144 26.1193 9.76867C25.5873 8.24473 24.7765 6.85274 23.7489 5.65355C23.114 4.91253 22.1784 4.84874 21.5351 5.00039C20.9755 5.13232 20.37 5.05956 19.8336 4.74988C19.2504 4.41317 18.8681 3.86472 18.7268 3.25445C18.5778 2.61044 18.1054 1.79797 17.1575 1.55808C16.1462 1.30216 15.0882 1.1665 14.0002 1.1665ZM14.0001 9.3328C16.5774 9.3328 18.6668 11.4221 18.6668 13.9995C18.6668 16.5768 16.5774 18.6661 14.0001 18.6661C11.4228 18.6661 9.33344 16.5768 9.33344 13.9995C9.33344 11.4221 11.4228 9.3328 14.0001 9.3328Z" fill="#4674FF"/>
</svg>
