<svg width="24" height="24" viewBox="0 0 24 24" fill="none" xmlns="http:
<path d="M12 24C18.6274 24 24 18.6274 24 12C24 5.37258 18.6274 0 12 0C5.37258 0 0 5.37258 0 12C0 18.6274 5.37258 24 12 24Z" fill="black"/>
<path d="M6.41143 9.16318L3.53143 7.69678C3.30538 8.14063 3.11479 8.60167 2.96143 9.07558L6.03703 10.0704C6.13827 9.75879 6.26345 9.45548 6.41143 9.16318Z" fill="#07DC76"/>
<path d="M8.85856 6.57843L10.4546 9.32763C10.687 9.19247 10.9364 9.08876 11.1962 9.01923L10.3706 5.94963C10.5808 5.89267 10.7939 5.84701 11.009 5.81283L10.5014 2.61963C10.0098 2.69794 9.52508 2.81469 9.05176 2.96883L10.0382 5.99283C9.72238 6.0946 9.41537 6.22181 9.12016 6.37323L7.68016 3.54243C7.23562 3.7678 6.80951 4.0278 6.40576 4.32003L8.31136 6.93483C8.48727 6.80635 8.66994 6.68738 8.85856 6.57843Z" fill="#07DC76"/>
<path d="M17.4189 8.8563L14.6709 10.4535C14.8064 10.6859 14.9105 10.9353 14.9805 11.1951L18.0501 10.3671C18.1071 10.5773 18.1527 10.7904 18.1869 11.0055L21.3789 10.4967C21.3006 10.005 21.1834 9.52028 21.0285 9.0471L18.0057 10.0359C17.9028 9.72132 17.7756 9.41521 17.6253 9.1203L20.4549 7.6671C20.2272 7.22512 19.9657 6.80145 19.6725 6.3999L17.0625 8.3091C17.191 8.48501 17.3099 8.66768 17.4189 8.8563Z" fill="#07DC76"/>
<path d="M16.2984 3.52925C15.8543 3.30409 15.3933 3.11392 14.9196 2.96045L13.9272 6.03605C14.2388 6.1373 14.5421 6.26247 14.8344 6.41045L16.2984 3.52925Z" fill="#07DC76"/>
<path d="M15.1511 6.52219L13.5371 9.32299C13.7714 9.45767 13.9868 9.6227 14.1779 9.81379L18.7043 5.27299C18.3518 4.92402 17.9727 4.60305 17.5703 4.31299L15.7043 6.88099C15.5255 6.75259 15.3419 6.63259 15.1511 6.52219Z" fill="#07DC76"/>
<path d="M6.5241 8.84666L9.3237 10.4619C9.45838 10.2276 9.62341 10.0121 9.8145 9.82106L5.2797 5.29346C4.92834 5.64534 4.60496 6.02409 4.3125 6.42626L6.8829 8.29346C6.7532 8.47111 6.63342 8.65579 6.5241 8.84666Z" fill="#07DC76"/>
<path d="M12.9791 5.76022L13.4675 2.61862C12.982 2.54233 12.4913 2.50381 11.9999 2.50342H11.9927V8.91382H11.9999C12.268 8.9136 12.5351 8.94829 12.7943 9.01702L13.6235 5.89702C13.4111 5.8405 13.1961 5.79484 12.9791 5.76022Z" fill="#07DC76"/>
<path d="M9.01675 11.2034L5.89675 10.373C5.84023 10.585 5.79457 10.7997 5.75995 11.0162L2.61595 10.5266C2.54011 11.0142 2.502 11.5068 2.50195 12.0002H8.91355C8.91333 11.7313 8.94802 11.4635 9.01675 11.2034Z" fill="#07DC76"/>
<path d="M17.5884 14.8371L20.4684 16.3035C20.6946 15.8593 20.8852 15.3979 21.0384 14.9235L17.9628 13.9287C17.8618 14.2408 17.7366 14.5445 17.5884 14.8371Z" fill="#07DC76"/>
<path d="M15.1413 17.4221L13.5453 14.6729C13.3128 14.808 13.0635 14.9117 12.8037 14.9813L13.6293 18.0509C13.4191 18.1078 13.206 18.1535 12.9909 18.1877L13.4985 21.3797C13.9902 21.3023 14.4749 21.186 14.9481 21.0317L13.9617 18.0077C14.2755 17.9046 14.5808 17.7774 14.8749 17.6273L16.3257 20.4581C16.7679 20.232 17.192 19.972 17.5941 19.6805L15.6885 17.0693C15.5123 17.1962 15.3297 17.314 15.1413 17.4221Z" fill="#07DC76"/>
<path d="M6.58061 15.1454L9.32861 13.5482C9.19356 13.3156 9.08948 13.0663 9.01901 12.8066L5.95061 13.6334C5.89382 13.4235 5.84776 13.2108 5.81261 12.9962L2.62061 13.5038C2.69875 13.996 2.81592 14.4811 2.97101 14.9546L5.99981 13.9658C6.10107 14.2798 6.22624 14.5854 6.37421 14.8802L3.54461 16.3322C3.772 16.7744 4.03359 17.1981 4.32701 17.5994L6.93701 15.6938C6.80877 15.5174 6.6898 15.3343 6.58061 15.1454Z" fill="#07DC76"/>
<path d="M7.70166 20.471C8.14554 20.6967 8.60658 20.8869 9.08046 21.0398L10.0729 17.9642C9.76096 17.8638 9.45759 17.7386 9.16566 17.5898L7.70166 20.471Z" fill="#07DC76"/>
<path d="M8.84861 17.4794L10.4626 14.6798C10.2286 14.5447 10.0132 14.3797 9.82181 14.189L5.29541 18.7286C5.64799 19.0793 6.02711 19.4022 6.42941 19.6946L8.29541 17.1206C8.47421 17.249 8.65781 17.369 8.84861 17.4794Z" fill="#07DC76"/>
<path d="M17.4755 15.1552L14.6759 13.54C14.5406 13.7739 14.3756 13.9893 14.1851 14.1808L18.7199 18.7084C19.0709 18.3566 19.3939 17.9778 19.6859 17.5756L17.1131 15.7072C17.2432 15.5295 17.3641 15.3453 17.4755 15.1552Z" fill="#07DC76"/>
<path d="M11.2057 14.9834L10.3765 18.1034C10.5877 18.1586 10.8037 18.203 11.0209 18.2378L10.5325 21.3842C11.0178 21.4621 11.5085 21.5022 12.0001 21.5042H12.0073V15.0866H12.0001C11.7319 15.0868 11.4649 15.0521 11.2057 14.9834Z" fill="#07DC76"/>
<path d="M15.0861 12C15.0863 12.2689 15.0516 12.5368 14.9829 12.7968L18.1029 13.6284C18.1593 13.416 18.205 13.201 18.2397 12.984L21.3813 13.4736C21.4592 12.9866 21.4993 12.4944 21.5013 12.0012L15.0861 12Z" fill="#07DC76"/>
</svg>
