<svg width="24" height="24" viewBox="0 0 24 24" fill="none" xmlns="http:
<g clip-path="url(#clip0_16364_5250)">
<path d="M12 24C18.6274 24 24 18.6274 24 12C24 5.37258 18.6274 0 12 0C5.37258 0 0 5.37258 0 12C0 18.6274 5.37258 24 12 24Z" fill="#132FFF"/>
<path d="M11.4815 6.11304C11.6429 6.03888 11.8185 6.00049 11.9963 6.00049C12.174 6.00049 12.3496 6.03888 12.5111 6.11304L15.5111 7.68264C15.5872 7.71364 15.6542 7.76368 15.7054 7.82798C15.7567 7.89228 15.7906 7.96868 15.8039 8.04984V15.9134C15.7986 16.0017 15.7683 16.0867 15.7164 16.1583C15.6645 16.23 15.5933 16.2853 15.5111 16.3178L12.5111 17.8874C12.3496 17.9616 12.174 18 11.9963 18C11.8185 18 11.6429 17.9616 11.4815 17.8874L8.47785 16.3202C8.39736 16.286 8.328 16.2301 8.27755 16.1587C8.2271 16.0872 8.19756 16.0031 8.19225 15.9158V8.04984C8.20355 7.9687 8.23584 7.89191 8.28594 7.82709C8.33603 7.76226 8.40218 7.71164 8.47785 7.68024L11.4815 6.11304ZM15.3215 12.4358L12.5135 13.9382C12.352 14.0124 12.1764 14.0508 11.9987 14.0508C11.8209 14.0508 11.6453 14.0124 11.4839 13.9382L8.67585 12.473V15.9278L11.4839 17.3846C11.6315 17.4735 11.7942 17.5345 11.9639 17.5646C12.1393 17.5476 12.3086 17.4914 12.4595 17.4002L15.2903 15.8978L15.3215 12.4358ZM7.71945 15.755C7.70744 15.973 7.74349 16.191 7.82505 16.3934C7.89592 16.5253 8.00235 16.6346 8.13225 16.709C8.16972 16.7401 8.20987 16.7679 8.25225 16.7918H8.30505L8.47785 16.8962L8.23065 17.2946L8.03985 17.1818L7.89705 17.0918C7.6686 16.9582 7.48475 16.7599 7.36861 16.5221C7.25246 16.2843 7.2092 16.0174 7.24425 15.755H7.71705H7.71945ZM11.7599 10.3478H11.6999L8.69985 11.9078L11.6999 13.4678H11.7599V10.3478ZM12.2255 10.3478V13.5026H12.2927L15.2927 11.9426L12.2927 10.3826H12.2255V10.3478ZM15.3191 8.62104L12.6383 10.025L15.3191 11.429V8.62104ZM8.67345 8.62104V11.4218L11.3471 10.0178L8.67345 8.62104ZM12.2927 6.53304C12.199 6.49269 12.0982 6.47188 11.9963 6.47188C11.8943 6.47188 11.7935 6.49269 11.6999 6.53304L8.69985 8.09304L11.6999 9.65304C11.7935 9.69339 11.8943 9.7142 11.9963 9.7142C12.0982 9.7142 12.199 9.69339 12.2927 9.65304L15.2927 8.09304L12.2927 6.53304ZM15.7547 6.69864L15.9431 6.81144C15.994 6.83574 16.0419 6.86594 16.0859 6.90144C16.3182 7.03361 16.5058 7.23212 16.6247 7.47155C16.7436 7.71099 16.7882 7.98045 16.7531 8.24544H16.2803C16.2946 8.02746 16.2589 7.8091 16.1759 7.60704C16.1066 7.4736 15.9993 7.36375 15.8675 7.29144L15.7547 7.23144H15.7019L15.5291 7.12704L15.7547 6.69864Z" fill="white"/>
</g>
<defs>
<clipPath id="clip0_16364_5250">
<rect width="24" height="24" fill="white"/>
</clipPath>
</defs>
</svg>
