<svg width="24" height="24" viewBox="0 0 24 24" fill="none" xmlns="http:
<path d="M12 24C18.6274 24 24 18.6274 24 12C24 5.37258 18.6274 0 12 0C5.37258 0 0 5.37258 0 12C0 18.6274 5.37258 24 12 24Z" fill="#00EC96"/>
<path d="M15.3675 6.98915L13.0335 10.4488C13.0007 10.4989 12.9872 10.5592 12.9955 10.6185C13.0038 10.6778 13.0333 10.7321 13.0787 10.7712C13.124 10.8104 13.182 10.8318 13.2419 10.8314C13.3018 10.831 13.3595 10.8089 13.4043 10.7692L15.7083 8.77595C15.7173 8.76781 15.7279 8.76153 15.7394 8.75748C15.7509 8.75344 15.763 8.7517 15.7752 8.75237C15.7873 8.75304 15.7992 8.7561 15.8102 8.76138C15.8212 8.76667 15.831 8.77406 15.8391 8.78315C15.8547 8.80114 15.8632 8.82416 15.8631 8.84795V15.0448C15.8698 15.0549 15.8745 15.0663 15.8768 15.0782C15.8791 15.0902 15.8791 15.1025 15.8766 15.1144C15.8741 15.1264 15.8694 15.1377 15.8625 15.1478C15.8557 15.1579 15.8469 15.1665 15.8367 15.1732C15.8267 15.1801 15.8153 15.185 15.8034 15.1875C15.7915 15.19 15.7791 15.19 15.7672 15.1877C15.7552 15.1853 15.7438 15.1806 15.7337 15.1738C15.7236 15.167 15.7149 15.1582 15.7083 15.148L8.74709 6.84035C8.63819 6.70493 8.49966 6.59631 8.34217 6.52287C8.18468 6.44942 8.01242 6.41312 7.83869 6.41675H7.59029C7.27708 6.4196 6.97768 6.54602 6.75722 6.7685C6.53675 6.99099 6.41307 7.29154 6.41309 7.60475V16.3828C6.41307 16.6989 6.53785 17.0024 6.7603 17.2271C6.98276 17.4518 7.28491 17.5796 7.60109 17.5828C7.80918 17.584 8.0141 17.5317 8.19611 17.4308C8.37812 17.3299 8.53109 17.1839 8.64029 17.0068L10.9527 13.5472C10.9737 13.5208 10.9894 13.4905 10.9987 13.458C11.008 13.4256 11.0109 13.3916 11.0071 13.3581C11.0033 13.3246 10.9929 13.2921 10.9766 13.2626C10.9603 13.233 10.9383 13.207 10.9119 13.186C10.8855 13.1649 10.8552 13.1493 10.8228 13.1399C10.7903 13.1306 10.7564 13.1278 10.7228 13.1315C10.6893 13.1353 10.6568 13.1457 10.6273 13.162C10.5978 13.1784 10.5717 13.2004 10.5507 13.2268L8.28029 15.2104C8.26853 15.2256 8.25184 15.2362 8.23307 15.2405C8.21431 15.2448 8.19465 15.2424 8.17747 15.2337C8.16028 15.225 8.14666 15.2107 8.13892 15.193C8.13119 15.1754 8.12983 15.1557 8.13509 15.1372V8.94155C8.13443 8.91681 8.14348 8.89279 8.16029 8.87462C8.17711 8.85646 8.20036 8.8456 8.22509 8.84435C8.23953 8.84383 8.2539 8.84671 8.26703 8.85276C8.28016 8.8588 8.29168 8.86784 8.30069 8.87915L15.2403 17.1604C15.3517 17.2932 15.4909 17.3999 15.6481 17.4731C15.8052 17.5463 15.9765 17.5841 16.1499 17.584H16.3971C16.7133 17.5808 17.0154 17.453 17.2379 17.2283C17.4603 17.0036 17.5851 16.7001 17.5851 16.384V7.60955C17.5826 7.3496 17.4957 7.09749 17.3375 6.89116C17.1794 6.68484 16.9585 6.53545 16.7081 6.46548C16.4577 6.39551 16.1914 6.40874 15.9492 6.50318C15.707 6.59762 15.502 6.76817 15.3651 6.98915H15.3675Z" fill="black"/>
</svg>
