<svg width="24" height="24" viewBox="0 0 24 24" fill="none" xmlns="http:
<g clip-path="url(#clip0_16364_5266)">
<path d="M12 24C18.6274 24 24 18.6274 24 12C24 5.37258 18.6274 0 12 0C5.37258 0 0 5.37258 0 12C0 18.6274 5.37258 24 12 24Z" fill="#2B53B7"/>
<path d="M16.5975 14.6007V14.6511L16.2111 16.0251C16.1881 16.0933 16.1437 16.1522 16.0844 16.1931C16.0251 16.234 15.9542 16.2546 15.8823 16.2519L7.96231 16.6323L9.11311 12.6387L7.64551 13.0947L7.94311 12.1839L9.40831 11.7219L11.0283 6.12027C11.0512 6.05072 11.0954 5.99012 11.1546 5.94705C11.2138 5.90399 11.2851 5.88062 11.3583 5.88027L13.3383 5.79147C13.4037 5.78241 13.4701 5.79913 13.5233 5.83809C13.5766 5.87706 13.6127 5.93521 13.6239 6.00027V6.07707L12.2751 10.8099L13.7439 10.3479L13.4715 11.3079L11.9775 11.7471L11.1375 14.6511L16.3083 14.4231C16.3701 14.4102 16.4344 14.4214 16.4882 14.4544C16.542 14.4874 16.5811 14.5397 16.5975 14.6007Z" fill="white"/>
</g>
<defs>
<clipPath id="clip0_16364_5266">
<rect width="24" height="24" fill="white"/>
</clipPath>
</defs>
</svg>
