<svg width="24" height="24" viewBox="0 0 24 24" fill="none" xmlns="http:
<path d="M12 24C18.6274 24 24 18.6274 24 12C24 5.37258 18.6274 0 12 0C5.37258 0 0 5.37258 0 12C0 18.6274 5.37258 24 12 24Z" fill="#5F7EDD"/>
<path d="M11.9988 15.2692L7.9668 12.8872L11.9988 18.5704L16.0344 12.8872L11.9988 15.2692Z" fill="white"/>
<path d="M16.0322 12.1226L11.999 14.5058L7.96582 12.1226L11.999 5.43018L16.0322 12.1226Z" fill="white"/>
<path d="M16.0317 12.1226L11.9985 10.289V5.43018L16.0317 12.1226Z" fill="#C1CCF7"/>
<path d="M16.0341 12.8872L11.9985 18.5704V15.2692L16.0341 12.8872Z" fill="#C1CCF7"/>
<path d="M11.9988 10.2891V14.5059L7.9668 12.1227L11.9988 10.2891Z" fill="#C1CCF7"/>
<path d="M16.0322 12.1227L11.999 14.5059V10.2891L16.0322 12.1227Z" fill="#8198EE"/>
</svg>
