<svg width="24" height="24" viewBox="0 0 24 24" fill="none" xmlns="http:
<g clip-path="url(#clip0_16364_5274)">
<path d="M12.0005 24C18.6279 24 24.0005 18.6274 24.0005 12C24.0005 5.37258 18.6279 0 12.0005 0C5.37307 0 0.000488281 5.37258 0.000488281 12C0.000488281 18.6274 5.37307 24 12.0005 24Z" fill="white"/>
<path d="M11.9774 0.0263673C10.0809 0.0261459 8.21154 0.476312 6.52307 1.33981C4.8346 2.20331 3.37534 3.45546 2.2654 4.99318C1.15546 6.5309 0.426571 8.31024 0.138739 10.1847C-0.149093 12.0592 0.0123571 13.9753 0.609799 15.7752H4.2002V5.70237L12.0002 13.5024L19.8002 5.70237V15.7752H23.4002C23.7936 14.5552 23.9959 13.2818 24.0002 12C23.9996 8.82415 22.7375 5.77862 20.4917 3.53321C18.2458 1.28779 15.2 0.0263672 12.0242 0.0263673H11.9774Z" fill="#F26822"/>
<path d="M10.1847 15.2771L6.78512 11.8799V18.2255H1.74512C2.81374 19.9808 4.31607 21.4316 6.10758 22.4383C7.89909 23.445 9.91952 23.9738 11.9745 23.9738C14.0295 23.9738 16.0499 23.445 17.8415 22.4383C19.633 21.4316 21.1353 19.9808 22.2039 18.2255H17.1603V11.8799L13.7619 15.2795L11.9775 17.0699L10.1847 15.2771Z" fill="#4D4D4D"/>
</g>
<defs>
<clipPath id="clip0_16364_5274">
<rect width="24" height="24" fill="white"/>
</clipPath>
</defs>
</svg>
