<svg width="24" height="24" viewBox="0 0 24 24" fill="none" xmlns="http:
<path d="M12 24C18.6274 24 24 18.6274 24 12C24 5.37258 18.6274 0 12 0C5.37258 0 0 5.37258 0 12C0 18.6274 5.37258 24 12 24Z" fill="#202634"/>
<path d="M11.2688 11.2983C11.6646 10.8022 11.8658 10.1788 11.8346 9.54496C11.8035 8.91112 11.5421 8.31042 11.0996 7.85553C10.6704 7.43745 10.1038 7.18974 9.50549 7.15861C8.90714 7.12748 8.31789 7.31504 7.84763 7.68633L7.65683 7.84593L7.44083 8.12073C6.43535 9.31012 5.92461 10.84 6.01392 12.3949C6.10323 13.9498 6.78578 15.4111 7.92083 16.4775C8.1178 16.6349 8.32684 16.7765 8.54603 16.9011C7.66749 16.2552 7.07178 15.2955 6.88283 14.2215C6.73424 12.4859 7.20157 10.7534 8.20283 9.32793C9.36683 7.73913 10.9628 9.18033 9.98123 10.4715C9.26123 11.4255 7.77803 13.8819 8.31923 15.5343C8.71397 16.5058 9.43203 17.3112 10.352 17.8143C11.2274 18.0614 12.1477 18.1049 13.0424 17.9415C12.2623 17.7571 11.5359 17.3935 10.9208 16.8795C8.46203 14.9631 10.2092 12.8403 11.2688 11.2983Z" fill="#08ADFB"/>
<path d="M16.035 7.53872C15.8386 7.38054 15.6295 7.23886 15.4098 7.11512C16.2882 7.76121 16.8838 8.72088 17.073 9.79472C17.2216 11.53 16.7543 13.2621 15.753 14.6871C14.5878 16.2759 12.993 14.8563 14.0274 13.5435C14.7474 12.5907 16.2294 10.1331 15.6894 8.49152C15.2736 7.50927 14.5232 6.70614 13.5714 6.22472C12.7403 5.97116 11.8638 5.90276 11.0034 6.02432C11.7821 6.2073 12.5076 6.56882 13.1226 7.08032C15.579 9.00032 13.8318 11.1267 12.7722 12.6615C12.3433 13.158 12.1174 13.7981 12.1396 14.4538C12.1619 15.1096 12.4306 15.7328 12.8922 16.1991C13.2146 16.5207 13.6211 16.745 14.0651 16.8462C14.5091 16.9474 14.9727 16.9216 15.4026 16.7715C15.673 16.6775 15.9269 16.5414 16.155 16.3683L16.335 16.2099L16.5678 15.9351V15.9447C17.5794 14.7449 18.0887 13.2009 17.9894 11.6347C17.8901 10.0685 17.19 8.60118 16.035 7.53872Z" fill="#08ADFB"/>
</svg>
