<svg width="24" height="24" viewBox="0 0 24 24" fill="none" xmlns="http:
<path d="M12 24C18.6274 24 24 18.6274 24 12C24 5.37258 18.6274 0 12 0C5.37258 0 0 5.37258 0 12C0 18.6274 5.37258 24 12 24Z" fill="#F2F2F2"/>
<path d="M7.94482 12.5882L11.9996 14.7602L16.034 12.593L11.9996 18.5702L7.94482 12.5882ZM8.12002 12.0002L11.9996 9.89178L15.8792 12.0002L11.9996 14.0894L8.12002 12.0002ZM11.9996 9.22578L7.94482 11.3534L11.9996 5.43018L16.0544 11.3534L11.9996 9.22578Z" fill="#3AB83A"/>
<path d="M12 14.7602L16.0344 12.593L12 18.5702V14.7602ZM12 9.89658L15.8796 12.0002L12 14.0894V9.89658ZM12 9.23058V5.43018L16.0548 11.3534L12 9.23058Z" fill="#0B8311"/>
<path d="M8.10693 12L11.9997 12.3204L15.8793 12L11.9997 14.0892L8.10693 12Z" fill="#0B8311"/>
<path d="M12 12.3204L15.8796 12L12 14.0892V12.3204Z" fill="#146714"/>
</svg>
