<svg width="24" height="24" viewBox="0 0 24 24" fill="none" xmlns="http:
<g clip-path="url(#clip0_16364_5286)">
<path d="M12 24C18.6274 24 24 18.6274 24 12C24 5.37258 18.6274 0 12 0C5.37258 0 0 5.37258 0 12C0 18.6274 5.37258 24 12 24Z" fill="#FF0420"/>
<path d="M8.20449 15.2905C7.57639 15.3146 6.95729 15.1353 6.43929 14.7793C6.20873 14.6087 6.02323 14.3844 5.89882 14.126C5.77441 13.8676 5.71485 13.5827 5.72529 13.2961C5.72783 13.1272 5.74551 12.959 5.77809 12.7933C5.84889 12.3613 5.97249 11.8333 6.11289 11.2045C6.23572 10.457 6.63505 9.78295 7.23167 9.31615C7.82829 8.84935 8.57859 8.62388 9.33369 8.68449C9.77003 8.67587 10.2032 8.76013 10.6045 8.93169C10.9623 9.06996 11.2701 9.31294 11.4877 9.62889C11.7096 9.9531 11.8238 10.3389 11.8141 10.7317C11.81 10.8929 11.7924 11.0535 11.7613 11.2117C11.6641 11.7589 11.5585 12.2917 11.4349 12.8089C11.2778 13.543 10.8866 14.2063 10.3201 14.6989C9.70538 15.1342 8.9629 15.3517 8.21049 15.3169L8.20449 15.2905ZM8.37249 13.9849C8.69284 13.9931 9.00561 13.8868 9.25449 13.6849C9.50608 13.4291 9.67355 13.1025 9.73449 12.7489C9.88449 12.1753 9.99129 11.6689 10.0621 11.2489C10.0753 11.114 10.0753 10.9782 10.0621 10.8433C10.0844 10.6441 10.0273 10.4441 9.90302 10.2868C9.77876 10.1295 9.59745 10.0276 9.39849 10.0033C9.32537 9.99509 9.25146 9.99711 9.17889 10.0093C8.85744 10.0031 8.54444 10.1125 8.29689 10.3177C8.03191 10.5646 7.85244 10.8895 7.78449 11.2453C7.66289 11.7397 7.56569 12.2397 7.49289 12.7453C7.48216 12.865 7.48216 12.9855 7.49289 13.1053C7.48929 13.6933 7.75449 13.9849 8.37249 13.9849ZM12.2125 15.2029C12.1831 15.2048 12.1537 15.2001 12.1263 15.1893C12.099 15.1786 12.0743 15.1619 12.0541 15.1405C12.0361 15.0859 12.0361 15.027 12.0541 14.9725L13.2985 9.02529C13.3016 8.99094 13.3128 8.9578 13.3311 8.9286C13.3495 8.8994 13.3745 8.87496 13.4041 8.85729C13.4515 8.81168 13.5147 8.78628 13.5805 8.78649H16.0165C16.5905 8.7626 17.1586 8.91006 17.6485 9.21009C17.8535 9.34375 18.0194 9.5293 18.1294 9.74787C18.2394 9.96643 18.2896 10.2102 18.2749 10.4545C18.271 10.6162 18.2505 10.777 18.2137 10.9345C18.1037 11.5428 17.774 12.0894 17.2873 12.4705C16.738 12.83 16.0889 13.006 15.4333 12.9733H14.1529L13.7377 14.9857C13.7313 15.0475 13.7066 15.1059 13.6669 15.1537C13.6207 15.195 13.5619 15.2196 13.5001 15.2233H12.2029L12.2125 15.2029ZM15.4525 11.6725C15.6951 11.6798 15.9325 11.6016 16.1233 11.4517C16.3258 11.3082 16.4675 11.0942 16.5205 10.8517C16.5277 10.7606 16.5277 10.6691 16.5205 10.5781C16.5227 10.5018 16.5098 10.4257 16.4824 10.3545C16.455 10.2832 16.4137 10.2181 16.3609 10.1629C16.2048 10.0522 16.0136 10.0023 15.8233 10.0225H14.7553L14.4001 11.6905H15.4321L15.4525 11.6725Z" fill="white"/>
</g>
<defs>
<clipPath id="clip0_16364_5286">
<rect width="24" height="24" fill="white"/>
</clipPath>
</defs>
</svg>
