<svg width="24" height="24" viewBox="0 0 24 24" fill="none" xmlns="http:
<path d="M12 24C18.6274 24 24 18.6274 24 12C24 5.37258 18.6274 0 12 0C5.37258 0 0 5.37258 0 12C0 18.6274 5.37258 24 12 24Z" fill="#E33C3C"/>
<path d="M9.37012 6.68105L12.4181 10.2811L14.4821 9.06425C14.4821 9.06425 11.9909 5.74265 11.3309 5.97665C10.6709 6.21065 9.37012 6.68105 9.37012 6.68105Z" fill="white"/>
<path d="M14.5737 9.06269C14.8991 8.45191 15.1366 7.79827 15.2793 7.12109C15.2793 7.12109 17.6085 8.05949 16.7193 10.4091L14.5737 9.06269Z" fill="white"/>
<path d="M16.7153 10.4413L16.9097 12.9073L17.8025 12.7873C17.8025 12.7873 18.0353 12.7093 17.9969 12.2821C17.9585 11.8549 17.8769 10.8325 17.8769 10.8325C17.8769 10.8325 17.9153 10.5997 17.3717 10.5217C16.7153 10.3969 16.7153 10.4413 16.7153 10.4413Z" fill="white"/>
<path d="M16.9098 12.9004L15.1206 14.35L15.9354 15.9484C15.9354 15.9484 16.1298 16.5952 16.7118 15.8704C17.2938 15.1456 17.4894 15.0484 17.4498 14.6212C17.4102 14.194 17.2974 13.1716 16.9098 12.9004Z" fill="white"/>
<path d="M15.0775 14.3444L12.6319 13.25L10.4719 17.5928C10.4719 17.5928 10.3099 17.9036 10.8607 17.942C11.4115 17.9804 12.3007 18.2204 12.7627 17.7476C13.5963 16.6566 14.3691 15.5205 15.0775 14.3444Z" fill="white"/>
<path d="M12.632 13.2111L12.4184 10.3203L7.13115 10.6803C7.13115 10.6803 6.82036 10.7187 6.85876 11.3271C6.89836 12.1107 6.97876 12.9711 6.97876 12.9711C6.97876 12.9711 6.93915 13.3203 7.62555 13.3659C8.31195 13.4115 12.554 13.3659 12.632 13.2111Z" fill="white"/>
</svg>
