<svg width="24" height="24" viewBox="0 0 24 24" fill="none" xmlns="http:
<path d="M12 24C18.6274 24 24 18.6274 24 12C24 5.37258 18.6274 0 12 0C5.37258 0 0 5.37258 0 12C0 18.6274 5.37258 24 12 24Z" fill="#E7087E"/>
<path d="M11.9773 8.25545C13.2657 8.25545 14.3101 7.6419 14.3101 6.88505C14.3101 6.1282 13.2657 5.51465 11.9773 5.51465C10.689 5.51465 9.64453 6.1282 9.64453 6.88505C9.64453 7.6419 10.689 8.25545 11.9773 8.25545Z" fill="white"/>
<path d="M11.9773 18.4869C13.2657 18.4869 14.3101 17.8733 14.3101 17.1165C14.3101 16.3596 13.2657 15.7461 11.9773 15.7461C10.689 15.7461 9.64453 16.3596 9.64453 17.1165C9.64453 17.8733 10.689 18.4869 11.9773 18.4869Z" fill="white"/>
<path d="M8.7139 16.5769C9.36934 16.1985 9.37845 14.9872 8.73427 13.8715C8.09008 12.7558 7.03654 12.1581 6.3811 12.5365C5.72567 12.9149 5.71655 14.1262 6.36074 15.2419C7.00492 16.3576 8.05847 16.9553 8.7139 16.5769Z" fill="white"/>
<path d="M17.5733 11.4636C18.2287 11.0852 18.2378 9.87393 17.5936 8.7582C16.9495 7.64248 15.8959 7.04477 15.2405 7.4232C14.585 7.80162 14.5759 9.01288 15.2201 10.1286C15.8643 11.2443 16.9178 11.842 17.5733 11.4636Z" fill="white"/>
<path d="M17.6378 15.1896C18.2814 14.0691 18.2693 12.8542 17.6108 12.4759C16.9523 12.0977 15.8968 12.6994 15.2532 13.8199C14.6096 14.9403 14.6217 16.1553 15.2802 16.5335C15.9387 16.9117 16.9942 16.31 17.6378 15.1896Z" fill="white"/>
<path d="M8.73367 10.1286C9.37752 9.01342 9.36814 7.80264 8.7127 7.42421C8.05727 7.04579 7.00399 7.64302 6.36014 8.75818C5.71628 9.87333 5.72567 11.0841 6.3811 11.4625C7.03654 11.841 8.08982 11.2437 8.73367 10.1286Z" fill="white"/>
</svg>
