<svg width="24" height="24" viewBox="0 0 24 24" fill="none" xmlns="http:
<path d="M12 24C18.6274 24 24 18.6274 24 12C24 5.37258 18.6274 0 12 0C5.37258 0 0 5.37258 0 12C0 18.6274 5.37258 24 12 24Z" fill="#8247E5"/>
<path d="M17.7084 11.4952L15 9.93284C14.9116 9.88093 14.8109 9.85357 14.7084 9.85357C14.6059 9.85357 14.5052 9.88093 14.4168 9.93284L9.588 12.7204C9.49861 12.772 9.39722 12.7992 9.294 12.7992C9.19078 12.7992 9.08939 12.772 9 12.7204L7.4628 11.8324C7.37429 11.7811 7.30078 11.7074 7.24962 11.6187C7.19846 11.5301 7.17142 11.4296 7.1712 11.3272V9.54644C7.17118 9.44404 7.19811 9.34344 7.2493 9.25476C7.30049 9.16608 7.37412 9.09243 7.4628 9.04124L9 8.15084C9.08881 8.10011 9.18932 8.07344 9.2916 8.07344C9.39388 8.07344 9.49439 8.10011 9.5832 8.15084L11.1252 9.04124C11.2141 9.09215 11.288 9.16573 11.3392 9.25448C11.3904 9.34323 11.4172 9.44397 11.4168 9.54644V10.402C11.4174 10.4273 11.4246 10.4519 11.4377 10.4735C11.4508 10.4951 11.4693 10.5128 11.4914 10.525C11.5135 10.5371 11.5385 10.5433 11.5637 10.5427C11.5889 10.5422 11.6136 10.5351 11.6352 10.522L12.438 10.06C12.4822 10.0342 12.5189 9.99725 12.5444 9.95282C12.5699 9.90839 12.5833 9.85805 12.5832 9.80684V8.87204C12.583 8.76969 12.5559 8.66919 12.5048 8.58054C12.4536 8.4919 12.3801 8.41822 12.2916 8.36684L9.5832 6.80684C9.49458 6.75553 9.394 6.72852 9.2916 6.72852C9.1892 6.72852 9.08862 6.75553 9 6.80684L6.2916 8.36684C6.20309 8.41822 6.12958 8.4919 6.07842 8.58054C6.02726 8.66919 6.00022 8.76969 6 8.87204V12.0004C6.0001 12.1028 6.02709 12.2034 6.07826 12.292C6.12944 12.3807 6.203 12.4543 6.2916 12.5056L9 14.0656C9.08862 14.1169 9.1892 14.144 9.2916 14.144C9.394 14.144 9.49458 14.1169 9.5832 14.0656L14.412 11.2804C14.5014 11.2288 14.6028 11.2017 14.706 11.2017C14.8092 11.2017 14.9106 11.2288 15 11.2804L16.5468 12.1708C16.6342 12.223 16.7065 12.297 16.7566 12.3856C16.8067 12.4742 16.8328 12.5743 16.8324 12.676V14.4568C16.8328 14.5593 16.806 14.66 16.7548 14.7488C16.7036 14.8375 16.6297 14.9111 16.5408 14.962L15 15.85C14.9114 15.9013 14.8108 15.9284 14.7084 15.9284C14.606 15.9284 14.5054 15.9013 14.4168 15.85L12.8748 14.9596C12.7861 14.9084 12.7125 14.8348 12.6613 14.7461C12.6101 14.6574 12.5832 14.5568 12.5832 14.4544V13.6C12.5829 13.5614 12.5673 13.5245 12.5399 13.4973C12.5125 13.4701 12.4754 13.4548 12.4368 13.4548C12.4115 13.4546 12.3866 13.4613 12.3648 13.474L11.562 13.9372C11.5177 13.9629 11.4811 13.9999 11.4558 14.0444C11.4305 14.0889 11.4175 14.1393 11.418 14.1904V15.1288C11.418 15.2311 11.4448 15.3316 11.4957 15.4202C11.5467 15.5089 11.62 15.5826 11.7084 15.634L14.4228 17.194C14.5114 17.2453 14.612 17.2724 14.7144 17.2724C14.8168 17.2724 14.9174 17.2453 15.006 17.194L17.7144 15.634C17.803 15.5827 17.8766 15.5091 17.9277 15.4204C17.9789 15.3318 18.0059 15.2312 18.006 15.1288V12.0004C18.0053 11.8975 17.9774 11.7965 17.9251 11.7078C17.8729 11.6191 17.7981 11.5458 17.7084 11.4952Z" fill="white"/>
</svg>
