<svg width="24" height="24" viewBox="0 0 24 24" fill="none" xmlns="http:
<path d="M12 24C18.6274 24 24 18.6274 24 12C24 5.37258 18.6274 0 12 0C5.37258 0 0 5.37258 0 12C0 18.6274 5.37258 24 12 24Z" fill="#2464E0"/>
<path d="M14.3673 10.607L17.9745 7.03223H16.2381L13.4961 9.74903C13.0976 10.1428 12.56 10.3637 11.9997 10.3637C11.4395 10.3637 10.9018 10.1428 10.5033 9.74903L7.7613 7.03223H6.0249L9.6321 10.607C10.2641 11.2272 11.1142 11.5746 11.9997 11.5746C12.8852 11.5746 13.7353 11.2272 14.3673 10.607Z" fill="white"/>
<path d="M14.3676 13.3743C13.7372 12.751 12.8865 12.4014 12 12.4014C11.1135 12.4014 10.2628 12.751 9.6324 13.3743L6 16.9683H7.7352L10.5036 14.2323C10.9021 13.8385 11.4397 13.6176 12 13.6176C12.5603 13.6176 13.0979 13.8385 13.4964 14.2323L16.2648 16.9683H18L14.3676 13.3743Z" fill="white"/>
</svg>
