<svg width="24" height="24" viewBox="0 0 24 24" fill="none" xmlns="http:
<g clip-path="url(#clip0_16364_5318)">
<path d="M12 24C18.6274 24 24 18.6274 24 12C24 5.37258 18.6274 0 12 0C5.37258 0 0 5.37258 0 12C0 18.6274 5.37258 24 12 24Z" fill="#160E2C"/>
<path d="M17.1078 7.56654L15.3978 8.44134L7.11783 12.6593C7.10343 12.4432 7.10343 12.2263 7.11783 12.0101C7.11783 10.7053 7.63618 9.45385 8.55886 8.53117C9.48154 7.60849 10.733 7.09014 12.0378 7.09014C12.8771 7.09216 13.7024 7.30508 14.4378 7.70934L15.4206 7.20774L15.5682 7.13934C14.6659 6.48762 13.6008 6.09847 12.4909 6.01502C11.3809 5.93156 10.2696 6.15707 9.27997 6.66654C8.29036 7.176 7.46114 7.94954 6.88422 8.90141C6.3073 9.85328 6.0052 10.9463 6.01143 12.0593V12.5213C6.02732 12.7365 5.98003 12.9516 5.87536 13.1403C5.77069 13.329 5.6132 13.4829 5.42223 13.5833L4.89062 13.7897V15.0185L6.41463 14.2517L6.90663 13.9961L7.38663 13.7561L16.1082 9.31614L17.091 8.81454L19.1166 7.83174V6.54414L17.1078 7.56654Z" fill="white"/>
<path d="M6.90284 15.2244L4.93604 16.2084V17.4372L6.90284 16.4532L8.61404 15.588L16.894 11.3604C16.9084 11.5766 16.9084 11.7934 16.894 12.0096C16.8958 12.8697 16.6722 13.7152 16.2453 14.4618C15.8184 15.2085 15.2033 15.8302 14.4612 16.265C13.7191 16.6998 12.876 16.9324 12.016 16.9398C11.156 16.9471 10.309 16.7289 9.55964 16.3068H9.50083L8.43884 16.8564C9.34114 17.5081 10.4063 17.8973 11.5162 17.9807C12.6261 18.0642 13.7375 17.8387 14.7271 17.3292C15.7167 16.8197 16.5459 16.0462 17.1228 15.0943C17.6998 14.1425 18.0019 13.0494 17.9956 11.9364V11.4792C17.9793 11.2653 18.0265 11.0513 18.1313 10.864C18.2362 10.6768 18.3939 10.5247 18.5848 10.4268L19.1056 10.1616V9L7.88564 14.7228L6.90284 15.2244Z" fill="white"/>
</g>
<defs>
<clipPath id="clip0_16364_5318">
<rect width="24" height="24" fill="white"/>
</clipPath>
</defs>
</svg>
