<svg width="24" height="24" viewBox="0 0 24 24" fill="none" xmlns="http:
<g clip-path="url(#clip0_16364_5306)">
<path d="M12 24C18.6274 24 24 18.6274 24 12C24 5.37258 18.6274 0 12 0C5.37258 0 0 5.37258 0 12C0 18.6274 5.37258 24 12 24Z" fill="#F10D09"/>
<path d="M17.556 14.187C17.516 14.4359 17.4421 14.6782 17.3364 14.907C17.3196 14.943 17.1996 15.1566 17.1696 15.2034C17.1593 15.2175 17.1508 15.2329 17.1444 15.249C17.1441 15.2512 17.1431 15.2532 17.1416 15.2547C17.1401 15.2562 17.1381 15.2572 17.136 15.2574C17.136 15.2574 17.1276 15.2634 17.1276 15.267C17.1276 15.2706 17.1276 15.2766 17.1192 15.2766V15.285C17.1192 15.285 17.1192 15.2946 17.1192 15.297C17.1192 15.2994 17.1096 15.303 17.1108 15.3066C17.112 15.3102 17.1108 15.315 17.1036 15.3174C17.0964 15.3198 17.0928 15.3246 17.0952 15.327C17.0976 15.3294 17.0952 15.3366 17.0868 15.3414C17.0784 15.3462 17.0748 15.3486 17.0796 15.3486C16.9919 15.4869 16.8936 15.6181 16.7856 15.741C16.6131 15.9373 16.4283 16.1225 16.2324 16.2954C14.9832 17.3754 13.1124 18.123 11.8368 18.0378C10.608 17.9526 8.99996 17.223 7.81196 16.215C7.08716 15.6006 6.62516 14.9694 6.47996 14.4006C6.43114 14.2009 6.41774 13.9942 6.44036 13.7898C6.44036 13.7778 6.44036 13.7634 6.44036 13.7514C6.50237 12.7653 6.7645 11.8022 7.21076 10.9206C7.21929 10.9068 7.2269 10.8923 7.23356 10.8774C7.14476 10.6146 6.90836 9.88864 6.71636 9.06184C6.42476 7.81264 6.23636 6.33544 6.79676 5.89624C6.79676 5.89624 7.75676 5.82664 9.03476 7.04224C9.38017 7.37394 9.69578 7.73532 9.97796 8.12224L10.0332 8.10304C10.5213 7.93037 11.0317 7.82853 11.5488 7.80064C11.7396 7.78864 12.3216 7.78864 12.4776 7.80064C12.9979 7.83575 13.5118 7.93531 14.0076 8.09704L14.0928 8.12464C14.3658 7.73923 14.6713 7.37791 15.006 7.04464C16.2396 5.83504 17.166 5.90344 17.166 5.90344C17.6988 6.32824 17.526 7.74064 17.25 8.95024C17.04 9.84064 16.788 10.6194 16.7256 10.8006C16.7276 10.8066 16.7304 10.8122 16.734 10.8174C16.7462 10.8465 16.7607 10.8746 16.7772 10.9014C17.2063 11.6485 17.4653 12.4811 17.5356 13.3398C17.5416 13.401 17.55 13.527 17.5536 13.617C17.5536 13.677 17.562 13.737 17.5644 13.7778C17.5636 13.7926 17.5636 13.8075 17.5644 13.8222C17.5703 13.9439 17.5675 14.0658 17.556 14.187Z" fill="white"/>
<path d="M17.5643 13.7826C17.0062 13.7309 16.4433 13.7896 15.908 13.9556C15.3726 14.1216 14.8752 14.3915 14.4443 14.7498C14.4443 14.7498 14.0339 12.8682 12.1115 12.8682C10.1891 12.8682 9.47146 14.7498 9.47146 14.7498C8.39146 13.5882 6.95146 13.6698 6.43066 13.7502C6.49583 12.7639 6.76123 11.8011 7.21066 10.9206C7.21919 10.9068 7.22681 10.8923 7.23346 10.8774C7.14466 10.6146 6.90826 9.88864 6.71626 9.06184C6.42466 7.81264 6.23626 6.33544 6.79666 5.89624C6.79666 5.89624 7.75666 5.82664 9.03466 7.04224C9.38007 7.37394 9.69569 7.73532 9.97786 8.12224L10.0331 8.10304C10.5212 7.93037 11.0316 7.82853 11.5487 7.80064C11.7395 7.78864 12.3215 7.78864 12.4775 7.80064C12.9978 7.83575 13.5117 7.93531 14.0075 8.09704L14.0927 8.12464C14.3657 7.73923 14.6712 7.37791 15.0059 7.04464C16.2395 5.83504 17.1659 5.90344 17.1659 5.90344C17.6987 6.32824 17.5259 7.74064 17.2499 8.95024C17.1491 9.39544 17.0339 9.81304 16.9379 10.1418C16.8419 10.4706 16.7627 10.7118 16.7315 10.8054C16.7335 10.8114 16.7364 10.817 16.7399 10.8222C16.7521 10.8513 16.7666 10.8794 16.7831 10.9062C17.2122 11.6533 17.4712 12.4859 17.5415 13.3446C17.5475 13.4058 17.5559 13.5318 17.5595 13.6218C17.5583 13.6806 17.5619 13.743 17.5643 13.7826Z" fill="#FFA409"/>
<path d="M16.9033 7.18496C16.8796 7.02009 16.8175 6.86308 16.7221 6.72656C16.7221 6.72656 15.9025 6.81056 14.5801 8.33216C14.7881 8.44452 14.9849 8.57631 15.1681 8.72576C15.656 9.10896 16.0637 9.58439 16.3681 10.125C16.3681 10.125 17.0893 8.25536 16.9033 7.18496Z" fill="#FF8300"/>
<path d="M16.9031 7.18452C16.7471 7.16412 16.0091 7.16052 15.1715 8.72772C14.9884 8.57826 14.7915 8.44647 14.5835 8.33412C15.9035 6.81252 16.7255 6.72852 16.7255 6.72852C16.8193 6.86466 16.8801 7.02079 16.9031 7.18452Z" fill="#FF9300"/>
<path d="M9.45924 8.33216C8.09004 6.81056 7.24044 6.72656 7.23924 6.72656C7.14034 6.86166 7.07644 7.01915 7.05324 7.18496C7.27808 7.17092 7.50115 7.2326 7.68684 7.36016C7.5016 7.23261 7.27891 7.17091 7.05444 7.18496C6.86244 8.25536 7.61124 10.1274 7.61124 10.1274C7.92753 9.58408 8.34797 9.10859 8.84844 8.72816C9.03941 8.57765 9.24388 8.44508 9.45924 8.33216Z" fill="#FF8300"/>
<path d="M9.45953 8.33163C9.24468 8.44385 9.04062 8.57561 8.84993 8.72523C7.98353 7.15563 7.22033 7.16523 7.05713 7.18203C7.08033 7.01622 7.14423 6.85873 7.24313 6.72363C7.24313 6.72363 8.09033 6.81003 9.45953 8.33163Z" fill="#FF9300"/>
<path d="M15.5039 12.24C15.4538 12.3186 15.388 12.386 15.3107 12.438C14.9234 12.683 14.4902 12.8463 14.0375 12.918C13.7507 12.9708 13.4651 12.978 13.3787 12.936C13.3223 12.9084 13.3139 12.8868 13.3343 12.816C13.411 12.622 13.5476 12.4576 13.7243 12.3468C13.8323 12.2688 14.2715 12.0024 14.4755 11.8908C14.7207 11.7416 14.9887 11.6334 15.2687 11.5704C15.3183 11.5612 15.3692 11.5612 15.4187 11.5704C15.4547 11.5848 15.4943 11.6904 15.5099 11.8188C15.5176 11.9592 15.5156 12.0999 15.5039 12.24Z" fill="black"/>
<path d="M10.7878 12.9077C10.7498 12.9441 10.6999 12.9654 10.6474 12.9677C10.5161 12.9754 10.3845 12.9721 10.2538 12.9581C9.83854 12.9038 9.43393 12.7869 9.05378 12.6113C8.90136 12.542 8.76147 12.4479 8.63978 12.3329L8.58338 12.2753V12.1985C8.57286 12.0605 8.57567 11.9219 8.59178 11.7845C8.59752 11.7233 8.61376 11.6637 8.63978 11.6081C8.65538 11.5889 8.65538 11.5889 8.72738 11.5889C8.82362 11.5901 8.91896 11.6075 9.00938 11.6405C9.38421 11.7773 9.74311 11.9543 10.0798 12.1685C10.4482 12.3893 10.5862 12.4973 10.6918 12.6485C10.7533 12.7209 10.7873 12.8127 10.7878 12.9077Z" fill="black"/>
<path d="M13.6221 15.6937C13.6221 15.6997 13.5981 15.7957 13.5681 15.9097C13.5381 16.0237 13.5141 16.1161 13.5141 16.1197C13.493 16.1221 13.4717 16.1221 13.4505 16.1197H13.3857L13.2981 16.3273L13.1997 16.5673L13.1877 16.5961L13.1457 16.5277L13.1037 16.4593V15.9049H13.0881C13.0545 15.9133 12.8121 15.9457 12.7053 15.9553C12.2659 15.9999 11.8226 15.9906 11.3853 15.9277C11.3157 15.9169 11.2557 15.9097 11.2533 15.9109C11.2509 15.9121 11.2533 16.0417 11.2533 16.2001V16.4845L11.2185 16.5361C11.2005 16.5637 11.1825 16.5877 11.1825 16.5901C11.1825 16.5925 11.1573 16.5637 11.1105 16.4701C11.061 16.3734 11.0235 16.2711 10.9989 16.1653L10.9845 16.1077H10.9221H10.8609L10.8441 16.0333C10.8369 15.9937 10.8261 15.9313 10.8225 15.8977V15.8329L10.7709 15.7873L10.7049 15.7309C10.7 15.7269 10.6961 15.7217 10.6936 15.7159C10.6911 15.71 10.6901 15.7036 10.6905 15.6973V15.6733H10.9401H11.1909L11.1993 15.6997L11.2065 15.7261H11.2929L11.6289 15.7357L11.8797 15.7417L11.9433 15.6421L12.0093 15.5425H12.0933V15.3601V15.1525L11.9829 15.1045C11.6229 14.9473 11.4201 14.7697 11.3421 14.5537C11.3212 14.4686 11.3148 14.3806 11.3229 14.2933C11.3122 14.2064 11.3162 14.1184 11.3349 14.0329C11.3484 13.984 11.3745 13.9394 11.4105 13.9036C11.4464 13.8679 11.4911 13.8421 11.5401 13.8289C11.7398 13.8137 11.9401 13.8105 12.1401 13.8193H12.6957L12.7581 13.8493C12.8185 13.8743 12.8705 13.9159 12.9081 13.9693C12.9594 14.0381 12.9817 14.1242 12.9705 14.2093C12.9746 14.338 12.9646 14.4668 12.9405 14.5933C12.9126 14.6758 12.8721 14.7535 12.8205 14.8237C12.7005 14.9653 12.5459 15.0736 12.3717 15.1381L12.3237 15.1561V15.3661V15.5761H12.3669H12.4113L12.4713 15.6661L12.5301 15.7561H12.7977H13.0881C13.0881 15.7561 13.1121 15.7561 13.1325 15.7237L13.1565 15.6877H13.3857C13.4644 15.6772 13.5442 15.6792 13.6221 15.6937Z" fill="black"/>
<path d="M12.566 16.269C12.5276 16.2906 12.5012 16.3002 12.4952 16.2966C12.4892 16.293 12.4616 16.2702 12.4316 16.2486L12.3776 16.2042L12.3212 16.2642C12.2012 16.3962 12.1952 16.4022 12.1592 16.4046C12.1028 16.4106 12.0908 16.4046 12.0224 16.299C11.9864 16.2462 11.9588 16.203 11.9588 16.203C11.9402 16.1999 11.9213 16.1979 11.9024 16.197L11.8472 16.191L11.8208 16.245L11.7944 16.299L11.7488 16.2846C11.7129 16.2726 11.6776 16.2586 11.6432 16.2426L11.582 16.2126V16.0986H12.1148H12.6476V16.1526C12.6512 16.221 12.6536 16.2186 12.566 16.269Z" fill="black"/>
<path d="M14.3403 11.1663C14.3403 11.1663 13.6995 11.2059 13.7799 10.7055C13.8603 10.2051 14.3607 10.1451 14.4999 10.1655C14.6391 10.1859 15.1995 10.3851 15.0999 10.8051C15.0003 11.2251 14.8599 11.1459 14.7795 11.1651C14.6333 11.1752 14.4866 11.1756 14.3403 11.1663Z" fill="white"/>
<path d="M9.61602 11.1663C9.61602 11.1663 8.97642 11.2059 9.05562 10.7055C9.13482 10.2051 9.63642 10.1451 9.77562 10.1655C9.91482 10.1859 10.4764 10.3851 10.3756 10.8051C10.2748 11.2251 10.1356 11.1459 10.0552 11.1651C9.90901 11.1752 9.76228 11.1756 9.61602 11.1663Z" fill="white"/>
</g>
<defs>
<clipPath id="clip0_16364_5306">
<rect width="24" height="24" fill="white"/>
</clipPath>
</defs>
</svg>
