<svg width="24" height="24" viewBox="0 0 24 24" fill="none" xmlns="http:
<g clip-path="url(#clip0_16364_5314)">
<path d="M12 24C18.6274 24 24 18.6274 24 12C24 5.37258 18.6274 0 12 0C5.37258 0 0 5.37258 0 12C0 18.6274 5.37258 24 12 24Z" fill="#5A4CFF"/>
<path d="M16.0046 17.1004L13.9202 13.8208H16.9202V12.5836H7.08984V13.8208H10.0802L7.99704 17.1004H9.57264L12.0002 13.2532L14.4518 17.1004H16.0046ZM16.9106 11.3776V10.1404H13.979L16.043 6.90039H14.4674L11.9918 10.8424L9.51744 6.90159H7.94184L10.0058 10.1416H7.08984V11.3932H16.9106V11.3776Z" fill="white"/>
</g>
<defs>
<clipPath id="clip0_16364_5314">
<rect width="24" height="24" fill="white"/>
</clipPath>
</defs>
</svg>
