<svg width="24" height="24" viewBox="0 0 24 24" fill="none" xmlns="http:
<g clip-path="url(#clip0_16364_5282)">
<path d="M12 24C18.6274 24 24 18.6274 24 12C24 5.37258 18.6274 0 12 0C5.37258 0 0 5.37258 0 12C0 18.6274 5.37258 24 12 24Z" fill="#0895F6"/>
<path fill-rule="evenodd" clip-rule="evenodd" d="M16.781 8.38066C16.3496 7.79698 15.7897 7.32028 15.1447 6.98737C14.4997 6.65446 13.7868 6.47425 13.061 6.46066C10.2146 6.46066 8.12065 9.11026 8.12065 11.9807C8.12065 13.9787 9.45505 15.4787 10.9298 15.4787C11.0669 15.4821 11.2039 15.4692 11.3378 15.4403C10.8213 15.0302 10.4066 14.5064 10.126 13.9096C9.84541 13.3128 9.70654 12.6592 9.72025 11.9999C9.72025 9.72706 11.2586 7.95946 13.0646 7.95946C15.0434 7.95946 16.4162 9.91906 16.4162 11.9999C16.4155 13.534 15.8785 15.0197 14.8982 16.1999C14.0993 17.1536 12.9869 17.7917 11.7602 17.9999H12.0002C13.5915 17.9999 15.1177 17.3677 16.2429 16.2425C17.3681 15.1173 18.0002 13.5912 18.0002 11.9999C18.0064 10.6916 17.5775 9.4185 16.781 8.38066ZM15.875 11.9999C15.875 10.0019 14.5406 8.50186 13.0658 8.50186C12.9288 8.49844 12.7918 8.51133 12.6578 8.54026C13.178 8.95165 13.5953 9.47837 13.8769 10.0788C14.1585 10.6792 14.2966 11.3369 14.2802 11.9999C14.2802 14.2727 12.7418 16.0403 10.9358 16.0403C8.95705 16.0403 7.58425 14.0807 7.58425 11.9999C7.58641 10.4677 8.12329 8.98443 9.10225 7.80586C9.90031 6.85288 11.0113 6.21485 12.2366 6.00586H11.9966C10.4053 6.00586 8.87922 6.638 7.75401 7.76322C6.62879 8.88844 5.99665 10.4146 5.99665 12.0059C5.9905 13.3141 6.41939 14.5872 7.21585 15.6251C7.64702 16.2091 8.20682 16.686 8.8519 17.019C9.49698 17.3519 10.21 17.5319 10.9358 17.5451C13.781 17.5199 15.875 14.8727 15.875 11.9999Z" fill="white"/>
</g>
<defs>
<clipPath id="clip0_16364_5282">
<rect width="24" height="24" fill="white"/>
</clipPath>
</defs>
</svg>
