<svg width="24" height="24" viewBox="0 0 24 24" fill="none" xmlns="http:
<path d="M12 24C18.6274 24 24 18.6274 24 12C24 5.37258 18.6274 0 12 0C5.37258 0 0 5.37258 0 12C0 18.6274 5.37258 24 12 24Z" fill="#7044CF"/>
<path d="M8.30455 14.2638C8.33713 14.23 8.3763 14.2031 8.41963 14.185C8.46297 14.1668 8.50957 14.1577 8.55656 14.1582H17.3166C17.3409 14.1594 17.3648 14.1655 17.3869 14.176C17.4089 14.1865 17.4286 14.2013 17.4449 14.2195C17.4612 14.2377 17.4738 14.2589 17.4818 14.282C17.4898 14.305 17.4932 14.3295 17.4918 14.3538C17.4898 14.3983 17.4724 14.4407 17.4426 14.4738L15.7122 16.2006C15.6453 16.2676 15.5548 16.3055 15.4602 16.3062H6.70016C6.66197 16.3093 6.62379 16.3001 6.59125 16.2799C6.55871 16.2596 6.53352 16.2295 6.51941 16.1939C6.5053 16.1583 6.503 16.119 6.51285 16.082C6.52271 16.045 6.5442 16.0121 6.57415 15.9882L8.30455 14.2638Z" fill="white"/>
<path d="M8.30428 7.80016C8.37094 7.73277 8.46149 7.69439 8.55628 7.69336H17.3163C17.3515 7.69385 17.3858 7.70468 17.415 7.72449C17.4441 7.7443 17.4668 7.77223 17.4802 7.80481C17.4936 7.83739 17.4972 7.87319 17.4904 7.90777C17.4837 7.94235 17.4669 7.9742 17.4423 7.99936L15.7119 9.73696C15.645 9.80391 15.5545 9.84184 15.4599 9.84256H6.69988C6.65074 9.83977 6.60471 9.81762 6.57187 9.78096C6.53903 9.74429 6.52206 9.69611 6.52468 9.64696C6.52666 9.60246 6.54406 9.56004 6.57388 9.52696L8.30428 7.80016Z" fill="white"/>
<path d="M15.7119 11.0111C15.6792 10.9773 15.64 10.9504 15.5967 10.9321C15.5534 10.9137 15.5069 10.9043 15.4599 10.9043H6.69988C6.65074 10.9071 6.60471 10.9292 6.57187 10.9659C6.53903 11.0026 6.52206 11.0507 6.52468 11.0999C6.52646 11.1444 6.54388 11.1869 6.57388 11.2199L8.30428 12.9419C8.33697 12.9757 8.37613 13.0026 8.41942 13.0209C8.46271 13.0393 8.50926 13.0487 8.55628 13.0487H17.3163C17.3515 13.0482 17.3858 13.0374 17.415 13.0176C17.4441 12.9978 17.4668 12.9698 17.4802 12.9372C17.4936 12.9047 17.4972 12.8689 17.4904 12.8343C17.4837 12.7997 17.4669 12.7679 17.4423 12.7427L15.7119 11.0111Z" fill="white"/>
</svg>
