<svg width="24" height="24" viewBox="0 0 24 24" fill="none" xmlns="http:
<g clip-path="url(#clip0_16468_3667)">
<path fill-rule="evenodd" clip-rule="evenodd" d="M12.0002 0C10.9829 0 9.99365 0.12684 9.04804 0.366109C8.16162 0.590411 7.71993 1.35014 7.58059 1.95235C7.44855 2.523 7.09102 3.03584 6.54568 3.35069C6.04412 3.64028 5.47786 3.70831 4.95461 3.58491C4.35313 3.44308 3.47817 3.50272 2.88443 4.19564C1.92359 5.31697 1.16548 6.61857 0.66801 8.04357C0.326632 9.02144 0.859912 9.88124 1.38622 10.3149C1.87402 10.7168 2.18202 11.322 2.18202 12C2.18202 12.678 1.87402 13.2832 1.38622 13.6851C0.859912 14.1188 0.326621 14.9785 0.667999 15.9564C1.16542 17.3812 1.92342 18.6827 2.8841 19.804C3.47789 20.497 4.35296 20.5567 4.95448 20.4147C5.47777 20.2913 6.04406 20.3593 6.54566 20.6489C7.09109 20.9638 7.44863 21.4767 7.58063 22.0475C7.71993 22.6498 8.16162 23.4096 9.04813 23.6339C9.99365 23.8731 10.9829 24 12.0002 24C13.0175 24 14.0068 23.8731 14.9524 23.6339C15.8388 23.4096 16.2806 22.6497 16.4199 22.0475C16.5519 21.4767 16.9094 20.9638 17.4548 20.6489C17.9564 20.3593 18.5226 20.2913 19.0459 20.4147C19.6474 20.5565 20.5224 20.497 21.1162 19.8039C22.0769 18.6827 22.835 17.3812 23.3323 15.9564C23.6738 14.9785 23.1404 14.1188 22.6142 13.6851C22.1263 13.2832 21.8183 12.678 21.8183 12C21.8183 11.322 22.1263 10.7168 22.6142 10.3149C23.1404 9.88124 23.6738 9.02145 23.3323 8.04359C22.8348 6.6186 22.0768 5.317 21.1159 4.19568C20.5222 3.50278 19.6473 3.44313 19.0458 3.58493C18.5226 3.70829 17.9564 3.64027 17.4548 3.35069C16.9095 3.03585 16.552 2.52301 16.4199 1.95237C16.2806 1.35017 15.8388 0.590465 14.9525 0.366153C14.0069 0.126851 13.0175 0 12.0002 0ZM12.0002 7.63636C14.4102 7.63636 16.3639 9.59003 16.3639 12C16.3639 14.4099 14.4102 16.3636 12.0002 16.3636C9.59028 16.3636 7.63661 14.4099 7.63661 12C7.63661 9.59003 9.59028 7.63636 12.0002 7.63636Z" fill="#666666"/>
</g>
<defs>
<clipPath id="clip0_16468_3667">
<rect width="24" height="24" fill="white"/>
</clipPath>
</defs>
</svg>
