<svg width="24" height="24" viewBox="0 0 24 24" fill="none" xmlns="http:
<path d="M12 24C18.6274 24 24 18.6274 24 12C24 5.37258 18.6274 0 12 0C5.37258 0 0 5.37258 0 12C0 18.6274 5.37258 24 12 24Z" fill="#31BAE7"/>
<path d="M15.4625 5.37012H8.53846L7.88086 6.03372V17.9737L8.53846 18.6301H15.4625L16.1201 17.9737V6.03372L15.4625 5.37012ZM14.7989 17.3101H9.20206V6.68292H14.7989V17.3101Z" fill="white"/>
<mask id="mask0_16675_2758" style="mask-type:luminance" maskUnits="userSpaceOnUse" x="7" y="5" width="10" height="14">
<path d="M15.4625 5.37012H8.53846L7.88086 6.03372V17.9737L8.53846 18.6301H15.4625L16.1201 17.9737V6.03372L15.4625 5.37012ZM14.7989 17.3101H9.20206V6.68292H14.7989V17.3101Z" fill="white"/>
</mask>
<g mask="url(#mask0_16675_2758)">
<path d="M9.35935 6.68262L9.20215 6.84702V6.68262H9.35935Z" fill="white"/>
<path d="M9.89575 6.68262L9.20215 7.38462V6.84702L9.35935 6.68262H9.89575Z" fill="white"/>
<path d="M10.4333 6.68262L9.20215 7.92222V7.38462L9.89575 6.68262H10.4333Z" fill="white"/>
<path d="M10.9709 6.68262L9.20215 8.45142V7.92222L10.4333 6.68262H10.9709Z" fill="white"/>
<path d="M11.5001 6.68262L9.20215 8.98902V8.45142L10.9709 6.68262H11.5001Z" fill="white"/>
<path d="M12.0377 6.68262L9.20215 9.52662V8.98902L11.5001 6.68262H12.0377Z" fill="white"/>
<path d="M12.5753 6.68262L9.20215 10.0558V9.52662L12.0377 6.68262H12.5753Z" fill="white"/>
<path d="M13.1045 6.68262L9.20215 10.5934V10.0558L12.5753 6.68262H13.1045Z" fill="white"/>
<path d="M13.6421 6.68262L9.20215 11.131V10.5934L13.1045 6.68262H13.6421Z" fill="white"/>
<path d="M14.1797 6.68262L9.20215 11.6674V11.131L13.6421 6.68262H14.1797Z" fill="white"/>
<path d="M14.7173 6.68262L9.20215 12.1978V11.6674L14.1797 6.68262H14.7173Z" fill="white"/>
<path d="M14.7989 7.13022L9.20215 12.7354V12.1978L14.7173 6.68262H14.7989V7.13022Z" fill="white"/>
<path d="M14.7989 7.66846L9.20215 13.2725V12.7361L14.7989 7.13086V7.66846Z" fill="white"/>
<path d="M14.7989 8.20557L9.20215 13.8024V13.272L14.7989 7.66797V8.20557Z" fill="white"/>
<path d="M14.7989 8.73526L9.20215 14.3405V13.8029L14.7989 8.20605V8.73526Z" fill="white"/>
<path d="M14.7989 9.27295L9.20215 14.877V14.3406L14.7989 8.73535V9.27295Z" fill="white"/>
<path d="M14.7989 9.81006L9.20215 15.4141V14.8765L14.7989 9.27246V9.81006Z" fill="white"/>
<path d="M14.7989 10.1765L9.20215 15.7733V15.4145L14.7989 9.81055V10.1765Z" fill="white"/>
<path d="M14.7989 10.5406L9.20215 16.1374V15.7726L14.7989 10.1758V10.5406Z" fill="white"/>
<path d="M14.7989 10.907L9.20215 16.5038V16.1378L14.7989 10.541V10.907Z" fill="white"/>
<path d="M14.7989 11.2732L9.20215 16.87V16.504L14.7989 10.9072V11.2732Z" fill="white"/>
<path d="M14.7989 11.6301L9.20215 17.2341V16.8693L14.7989 11.2725V11.6301Z" fill="white"/>
<path d="M14.7989 11.9969L9.47815 17.3249H9.20215V17.2349L14.7989 11.6309V11.9969Z" fill="white"/>
<path d="M14.7993 12.3621L9.84452 17.3241H9.47852L14.7993 11.9961V12.3621Z" fill="white"/>
<path d="M14.7986 12.7271L10.2098 17.3243H9.84375L14.7986 12.3623V12.7271Z" fill="white"/>
<path d="M14.7988 13.0935L10.5748 17.3247H10.21L14.7988 12.7275V13.0935Z" fill="white"/>
<path d="M14.7992 13.4598L10.9412 17.3249H10.5752L14.7992 13.0938V13.4598Z" fill="white"/>
<path d="M14.7994 13.8238L11.3074 17.3242H10.9414L14.7994 13.459V13.8238Z" fill="white"/>
<path d="M14.7986 14.1902L11.6714 17.3246H11.3066L14.7986 13.8242V14.1902Z" fill="white"/>
<path d="M14.7991 14.5564L12.0379 17.3248H11.6719L14.7991 14.1904V14.5564Z" fill="white"/>
<path d="M14.7993 14.9226L12.3969 17.325H12.0381L14.7993 14.5566V14.9226Z" fill="white"/>
<path d="M14.7989 15.2795L12.7613 17.3243H12.3965L14.7989 14.9219V15.2795Z" fill="white"/>
<path d="M14.7993 15.6453L13.1277 17.3241H12.7617L14.7993 15.2793V15.6453Z" fill="white"/>
<path d="M14.7986 16.0115L13.493 17.3243H13.127L14.7986 15.6455V16.0115Z" fill="white"/>
<path d="M14.7988 16.3765L13.858 17.3245H13.4932L14.7988 16.0117V16.3765Z" fill="white"/>
<path d="M14.7992 16.743L14.2244 17.325H13.8584L14.7992 16.377V16.743Z" fill="white"/>
<path d="M14.7994 17.1082L14.5906 17.3242H14.2246L14.7994 16.7422V17.1082Z" fill="white"/>
<path d="M14.5898 17.3244L14.7986 17.1084V17.3244H14.5898Z" fill="white"/>
<path d="M8.53846 5.37012L7.88086 6.02652V5.37012H8.53846Z" fill="white"/>
<path d="M9.07486 5.37012L7.88086 6.56412V6.02652L8.53846 5.37012H9.07486Z" fill="white"/>
<path d="M9.61246 5.37012L7.88086 7.10052V6.56412L9.07486 5.37012H9.61246Z" fill="white"/>
<path d="M10.1429 5.37012L7.88086 7.63092V7.10052L9.61246 5.37012H10.1429Z" fill="white"/>
<path d="M10.6793 5.37012L7.88086 8.16852V7.63092L10.1429 5.37012H10.6793Z" fill="white"/>
<path d="M11.2169 5.37012L7.88086 8.70612V8.16852L10.6793 5.37012H11.2169Z" fill="white"/>
<path d="M11.7473 5.37012L7.88086 9.23532V8.70612L11.2169 5.37012H11.7473Z" fill="white"/>
<path d="M12.2837 5.37012L7.88086 9.77292V9.23532L11.7473 5.37012H12.2837Z" fill="white"/>
<path d="M12.8213 5.37012L7.88086 10.3105V9.77292L12.2837 5.37012H12.8213Z" fill="white"/>
<path d="M13.3589 5.37012L7.88086 10.8397V10.3105L12.8213 5.37012H13.3589Z" fill="white"/>
<path d="M13.8881 5.37012L7.88086 11.3773V10.8397L13.3589 5.37012H13.8881Z" fill="white"/>
<path d="M14.4257 5.37012L7.88086 11.9137V11.3773L13.8881 5.37012H14.4257Z" fill="white"/>
<path d="M14.9633 5.37012L7.88086 12.4441V11.9137L14.4257 5.37012H14.9633Z" fill="white"/>
<path d="M15.4925 5.37012L7.88086 12.9817V12.4441L14.9633 5.37012H15.4925Z" fill="white"/>
<path d="M15.5969 5.37012L15.8141 5.58612L7.88086 13.5193V12.9817L15.4925 5.37012H15.5969Z" fill="white"/>
<path d="M15.8141 5.58594L16.0829 5.85474L7.88086 14.0555V13.5191L15.8141 5.58594Z" fill="white"/>
<path d="M16.0829 5.85449L16.1201 5.89169V6.34649L7.88086 14.5857V14.0553L16.0829 5.85449Z" fill="white"/>
<path d="M16.1201 6.88428L7.88086 15.1235V14.5859L16.1201 6.34668V6.88428Z" fill="white"/>
<path d="M16.1201 7.42237L7.88086 15.6604V15.124L16.1201 6.88477V7.42237Z" fill="white"/>
<path d="M16.1201 7.95108L7.88086 16.1903V15.6599L16.1201 7.42188V7.95108Z" fill="white"/>
<path d="M16.1201 8.48877L7.88086 16.728V16.1904L16.1201 7.95117V8.48877Z" fill="white"/>
<path d="M16.1201 8.85526L7.88086 17.0933V16.7285L16.1201 8.48926V8.85526Z" fill="white"/>
<path d="M16.1201 9.22049L7.88086 17.4585V17.0925L16.1201 8.85449V9.22049Z" fill="white"/>
<path d="M16.1201 9.5855L7.88086 17.8247V17.4587L16.1201 9.2207V9.5855Z" fill="white"/>
<path d="M16.1201 9.95194L7.91806 18.1527L7.88086 18.1155V17.8251L16.1201 9.58594V9.95194Z" fill="white"/>
<path d="M16.12 10.3181L8.09797 18.3329L7.91797 18.1529L16.12 9.95215V10.3181Z" fill="white"/>
<path d="M16.1197 10.6832L8.28366 18.5192L8.09766 18.3332L16.1197 10.3184V10.6832Z" fill="white"/>
<path d="M16.1202 11.0486L8.52298 18.6374H8.40418L8.28418 18.5186L16.1202 10.6826V11.0486Z" fill="white"/>
<path d="M16.1197 11.4148L8.88846 18.6376H8.52246L16.1197 11.0488V11.4148Z" fill="white"/>
<path d="M16.1199 11.7717L9.25467 18.6369H8.88867L16.1199 11.4141V11.7717Z" fill="white"/>
<path d="M16.1201 12.1385L9.61968 18.6377H9.25488L16.1201 11.7725V12.1385Z" fill="white"/>
<path d="M16.1205 12.5047L9.98612 18.6379H9.62012L16.1205 12.1387V12.5047Z" fill="white"/>
<path d="M16.1198 12.8699L10.3514 18.6371H9.98535L16.1198 12.5039V12.8699Z" fill="white"/>
<path d="M16.12 13.2349L10.7164 18.6373H10.3516L16.12 12.8701V13.2349Z" fill="white"/>
<path d="M16.1204 13.6004L11.0828 18.6368H10.7168L16.1204 13.2344V13.6004Z" fill="white"/>
<path d="M16.1196 13.9676L11.448 18.638H11.082L16.1196 13.6016V13.9676Z" fill="white"/>
<path d="M16.1198 14.3316L11.8142 18.6372H11.4482L16.1198 13.9668V14.3316Z" fill="white"/>
<path d="M16.1201 14.698L12.1721 18.6376H11.8145L16.1201 14.332V14.698Z" fill="white"/>
<path d="M16.1199 15.0633L12.5379 18.6369H12.1719L16.1199 14.6973V15.0633Z" fill="white"/>
<path d="M16.1201 15.4283L12.9041 18.6371H12.5381L16.1201 15.0635V15.4283Z" fill="white"/>
<path d="M16.1203 15.7875L13.2691 18.6375H12.9043L16.1203 15.4287V15.7875Z" fill="white"/>
<path d="M16.1198 16.1531L13.6346 18.6371H13.2686L16.1198 15.7871V16.1531Z" fill="white"/>
<path d="M16.12 16.5181L14.0008 18.6373H13.6348L16.12 16.1533V16.5181Z" fill="white"/>
<path d="M16.1202 16.8846L14.3658 18.6378H14.001L16.1202 16.5186V16.8846Z" fill="white"/>
<path d="M16.1196 17.2508L14.7312 18.638H14.3652L16.1196 16.8848V17.2508Z" fill="white"/>
<path d="M16.1198 17.616L15.0974 18.6372H14.7314L16.1198 17.25V17.616Z" fill="white"/>
<path d="M16.1201 17.981L15.4625 18.6374H15.0977L16.1201 17.6162V17.981Z" fill="white"/>
<path d="M15.4629 18.6369L16.1205 17.9805V18.6369H15.4629Z" fill="white"/>
</g>
<path d="M14.097 13.8916H12.6642V15.3844H11.3742V13.8916H9.94141V12.6004H14.097V13.8916ZM14.097 10.1608H12.6642V8.66797H11.3742V10.1608H9.94141V11.4808H14.097V10.1608Z" fill="white"/>
<mask id="mask1_16675_2758" style="mask-type:luminance" maskUnits="userSpaceOnUse" x="9" y="8" width="6" height="8">
<path d="M14.097 13.8916H12.6642V15.3844H11.3742V13.8916H9.94141V12.6004H14.097V13.8916ZM14.097 10.1608H12.6642V8.66797H11.3742V10.1608H9.94141V11.4808H14.097V10.1608Z" fill="white"/>
</mask>
<g mask="url(#mask1_16675_2758)">
<path d="M11.3742 8.68359L9.94141 10.1164V8.68359H11.3742Z" fill="white"/>
<path d="M11.583 8.68359L9.94141 10.3324V10.1164L11.3742 8.68359H11.583Z" fill="white"/>
<path d="M11.7918 8.68359L9.94141 10.5412V10.3324L11.583 8.68359H11.7918Z" fill="white"/>
<path d="M12.0078 8.68359L9.94141 10.75V10.5412L11.7918 8.68359H12.0078Z" fill="white"/>
<path d="M12.2166 8.68359L9.94141 10.9672V10.75L12.0078 8.68359H12.2166Z" fill="white"/>
<path d="M12.4338 8.68359L9.94141 11.176V10.9672L12.2166 8.68359H12.4338Z" fill="white"/>
<path d="M12.6426 8.68359L9.94141 11.392V11.176L12.4338 8.68359H12.6426Z" fill="white"/>
<path d="M12.7986 8.68359L12.8286 8.71359L10.0602 11.482H9.94141V11.392L12.6426 8.68359H12.7986Z" fill="white"/>
<path d="M12.8289 8.71289L12.9333 8.81729L10.2777 11.4813H10.0605L12.8289 8.71289Z" fill="white"/>
<path d="M12.9329 8.81836L13.0373 8.92276L10.4861 11.4824H10.2773L12.9329 8.81836Z" fill="white"/>
<path d="M13.0375 8.92285L13.1503 9.02725L10.6951 11.4825H10.4863L13.0375 8.92285Z" fill="white"/>
<path d="M13.1505 9.02734L13.2549 9.13894L10.9113 11.4825H10.6953L13.1505 9.02734Z" fill="white"/>
<path d="M13.2547 9.13867L13.3591 9.24307L11.1199 11.4823H10.9111L13.2547 9.13867Z" fill="white"/>
<path d="M13.3593 9.24219L13.4637 9.34659L11.3373 11.4814H11.1201L13.3593 9.24219Z" fill="white"/>
<path d="M13.4633 9.34766L13.5677 9.45206L11.5457 11.4825H11.3369L13.4633 9.34766Z" fill="white"/>
<path d="M13.5679 9.45117L13.6795 9.55557L11.7547 11.4816H11.5459L13.5679 9.45117Z" fill="white"/>
<path d="M13.6797 9.55566L13.7841 9.66846L11.9709 11.4817H11.7549L13.6797 9.55566Z" fill="white"/>
<path d="M13.7839 9.66895L13.8883 9.77335L12.1795 11.4821H11.9707L13.7839 9.66895Z" fill="white"/>
<path d="M13.8885 9.77344L13.9929 9.87784L12.3969 11.4822H12.1797L13.8885 9.77344Z" fill="white"/>
<path d="M13.9925 9.87793L14.0969 9.98233V9.98953L12.6053 11.4823H12.3965L13.9925 9.87793Z" fill="white"/>
<path d="M14.0971 10.1981L12.8143 11.4821H12.6055L14.0971 9.98926V10.1981Z" fill="white"/>
<path d="M14.0973 10.3482L12.9633 11.4822H12.8145L14.0973 10.1982V10.3482Z" fill="white"/>
<path d="M14.0969 10.4893L13.1045 11.4817H12.9629L14.0969 10.3477V10.4893Z" fill="white"/>
<path d="M14.0969 10.6309L13.2545 11.4817H13.1045L14.0969 10.4893V10.6309Z" fill="white"/>
<path d="M14.0973 10.7797L13.3965 11.4817H13.2549L14.0973 10.6309V10.7797Z" fill="white"/>
<path d="M14.0973 10.9209L13.5381 11.4813H13.3965L14.0973 10.7793V10.9209Z" fill="white"/>
<path d="M14.0973 11.0647L13.6881 11.4823H13.5381L14.0973 10.9219V11.0647Z" fill="white"/>
<path d="M14.0967 11.2133L13.8291 11.4821H13.6875L14.0967 11.0645V11.2133Z" fill="white"/>
<path d="M14.0967 11.3545L13.9707 11.4817H13.8291L14.0967 11.2129V11.3545Z" fill="white"/>
<path d="M13.9707 11.4827L14.0967 11.3555V11.4827H13.9707Z" fill="white"/>
<path d="M10.0002 12.6016L9.94141 12.6604V12.6016H10.0002Z" fill="white"/>
<path d="M10.2174 12.6016L9.94141 12.8776V12.6604L10.0002 12.6016H10.2174Z" fill="white"/>
<path d="M10.4262 12.6016L9.94141 13.0864V12.8776L10.2174 12.6016H10.4262Z" fill="white"/>
<path d="M10.6422 12.6016L9.94141 13.2952V13.0864L10.4262 12.6016H10.6422Z" fill="white"/>
<path d="M10.851 12.6016L9.94141 13.5112V13.2952L10.6422 12.6016H10.851Z" fill="white"/>
<path d="M11.061 12.6016L9.94141 13.72V13.5112L10.851 12.6016H11.061Z" fill="white"/>
<path d="M11.277 12.6016L9.94141 13.9372V13.72L11.061 12.6016H11.277Z" fill="white"/>
<path d="M11.4858 12.6016L9.96301 14.1232L9.94141 14.0932V13.9372L11.277 12.6016H11.4858Z" fill="white"/>
<path d="M11.7017 12.6016L10.0673 14.2276L9.96289 14.1232L11.4857 12.6016H11.7017Z" fill="white"/>
<path d="M11.8434 12.6016L10.143 14.3032L10.0674 14.2276L11.7018 12.6016H11.8434Z" fill="white"/>
<path d="M11.9858 12.6016L10.217 14.3704L10.1426 14.3032L11.843 12.6016H11.9858Z" fill="white"/>
<path d="M12.1354 12.6016L10.285 14.4448L10.2178 14.3704L11.9866 12.6016H12.1354Z" fill="white"/>
<path d="M12.2772 12.6016L10.3596 14.5192L10.2852 14.4448L12.1356 12.6016H12.2772Z" fill="white"/>
<path d="M12.4186 12.6016L10.4338 14.5864L10.3594 14.5192L12.277 12.6016H12.4186Z" fill="white"/>
<path d="M12.5684 12.6016L10.5008 14.6608L10.4336 14.5864L12.4184 12.6016H12.5684Z" fill="white"/>
<path d="M12.7102 12.6016L10.5754 14.7352L10.501 14.6608L12.5686 12.6016H12.7102Z" fill="white"/>
<path d="M12.8588 12.6016L10.6508 14.8024L10.5752 14.7352L12.71 12.6016H12.8588Z" fill="white"/>
<path d="M13 12.6016L10.7164 14.8768L10.6504 14.8024L12.8584 12.6016H13Z" fill="white"/>
<path d="M13.1432 12.6016L10.7924 14.9512L10.7168 14.8768L13.0004 12.6016H13.1432Z" fill="white"/>
<path d="M13.2916 12.6016L10.8664 15.0268L10.792 14.9512L13.1428 12.6016H13.2916Z" fill="white"/>
<path d="M13.433 12.6016L10.9334 15.094L10.8662 15.0268L13.2914 12.6016H13.433Z" fill="white"/>
<path d="M13.5748 12.6016L11.008 15.1684L10.9336 15.094L13.4332 12.6016H13.5748Z" fill="white"/>
<path d="M13.7234 12.6016L11.0822 15.2428L11.0078 15.1684L13.5746 12.6016H13.7234Z" fill="white"/>
<path d="M13.867 12.6016L11.1574 15.31L11.083 15.2428L13.7242 12.6016H13.867Z" fill="white"/>
<path d="M14.0156 12.6016L11.2244 15.3844L11.1572 15.31L13.8668 12.6016H14.0156Z" fill="white"/>
<path d="M14.0974 12.6604L11.359 15.3916H11.2318L11.2246 15.3844L14.0158 12.6016H14.0974V12.6604Z" fill="white"/>
<path d="M14.0968 12.803L11.5084 15.3914H11.3584L14.0968 12.6602V12.803Z" fill="white"/>
<path d="M14.0972 12.9443L11.6504 15.3911H11.5088L14.0972 12.8027V12.9443Z" fill="white"/>
<path d="M14.0972 13.0931L11.7992 15.3911H11.6504L14.0972 12.9443V13.0931Z" fill="white"/>
<path d="M14.0968 13.2354L11.9404 15.3917H11.7988L14.0968 13.0938V13.2354Z" fill="white"/>
<path d="M14.0968 13.377L12.082 15.3918H11.9404L14.0968 13.2354V13.377Z" fill="white"/>
<path d="M14.0968 13.527L12.232 15.3918H12.082L14.0968 13.377V13.527Z" fill="white"/>
<path d="M14.0972 13.668L12.374 15.3912H12.2324L14.0972 13.5264V13.668Z" fill="white"/>
<path d="M14.0972 13.8168L12.5228 15.3912H12.374L14.0972 13.668V13.8168Z" fill="white"/>
<path d="M14.0969 13.959L12.6641 15.3918H12.5225L14.0969 13.8174V13.959Z" fill="white"/>
<path d="M12.6641 15.3918L14.0969 13.959V15.3918H12.6641Z" fill="white"/>
</g>
</svg>
