<svg width="24" height="24" viewBox="0 0 24 24" fill="none" xmlns="http:
<path d="M12 24C18.6274 24 24 18.6274 24 12C24 5.37258 18.6274 0 12 0C5.37258 0 0 5.37258 0 12C0 18.6274 5.37258 24 12 24Z" fill="#2F0890"/>
<path d="M11.2507 18.0985H12.7195L17.5615 8.12891H16.7527C16.5568 8.12924 16.3649 8.18452 16.1988 8.28846C16.0327 8.3924 15.8991 8.54084 15.8131 8.71691L11.9851 16.5697L8.6059 9.53891H9.3403C9.48017 9.53855 9.61727 9.57796 9.73561 9.65253C9.85395 9.72711 9.94866 9.83377 10.0087 9.96011L12.2491 14.5885L13.0207 13.0381L11.0515 9.36011C10.8598 8.9928 10.572 8.68435 10.219 8.46755C9.86586 8.25075 9.46061 8.13372 9.0463 8.12891H6.4375L11.2507 18.0985Z" fill="white"/>
</svg>
