<svg width="24" height="24" viewBox="0 0 24 24" fill="none" xmlns="http:
<path d="M12 24C18.6274 24 24 18.6274 24 12C24 5.37258 18.6274 0 12 0C5.37258 0 0 5.37258 0 12C0 18.6274 5.37258 24 12 24Z" fill="#F5D4E5"/>
<path d="M10.0101 6.96505H9.91406C10.1601 6.94837 10.4073 6.96614 10.6485 7.01785C11.2809 7.19073 11.8433 7.55753 12.2565 8.06665L12.3969 8.23225H12.5997C13.4457 8.08935 14.315 8.1987 15.0993 8.54665C15.2955 8.63741 15.4831 8.74586 15.6597 8.87065C15.6907 8.94002 15.7114 9.01362 15.7209 9.08905C15.7873 9.38204 15.7565 9.68868 15.6333 9.96265C15.5971 10.0133 15.582 10.076 15.5911 10.1376C15.6003 10.1992 15.6331 10.2548 15.6825 10.2926C15.7216 10.3211 15.7685 10.3369 15.8169 10.3382C16.0089 10.3382 16.2009 10.0502 16.2969 9.63145V9.46465L16.3665 9.54385C16.7565 9.963 17.0202 10.4838 17.1273 11.0462V11.1662L17.0925 11.0174C16.9948 10.8601 16.8672 10.7235 16.7169 10.6154C16.3195 10.4058 15.8713 10.3118 15.4233 10.3442C14.941 10.3336 14.4622 10.2602 13.9989 10.1258C13.3605 9.91705 13.0281 9.63745 12.2505 8.63185C12.0227 8.32194 11.7716 8.02989 11.4993 7.75825C11.1012 7.34039 10.5789 7.06219 10.0101 6.96505Z" fill="#FF1280"/>
<path d="M15.8226 7.95341C15.8214 7.72509 15.868 7.49905 15.9594 7.28981C15.9786 7.24094 16.0023 7.19394 16.0302 7.14941V7.26941C15.9786 7.49369 15.9786 7.72674 16.0302 7.95101C16.0818 8.31101 16.1082 8.35301 16.4838 8.73821C16.659 8.91221 16.8606 9.14021 16.9386 9.23621L17.0694 9.41021L16.9386 9.27941C16.7163 9.08396 16.4751 8.9111 16.2186 8.76341H16.1574C16.0962 8.76341 16.1574 8.84261 16.1574 9.06941C16.1649 9.34403 16.1078 9.61657 15.9906 9.86501C15.9126 9.96101 15.921 9.98501 15.9906 9.86501C16.037 9.70953 16.0521 9.54638 16.035 9.38501C16.035 8.70221 15.9558 8.51021 15.4842 8.26541L15.045 8.03981L14.835 7.94381C15.0592 7.98598 15.2786 8.0503 15.4902 8.13581C15.7614 8.25581 15.8046 8.25581 15.8394 8.25581C15.8568 8.15505 15.8511 8.05163 15.8226 7.95341Z" fill="#FF1280"/>
<path d="M10.3259 9.1189C9.98751 8.62571 9.81708 8.03658 9.83992 7.4389V7.2793H9.91792C10.0922 7.32128 10.26 7.38625 10.4171 7.4725C10.7315 7.6549 10.8707 7.9177 11.0015 8.5525C11.0169 8.71703 11.0553 8.8786 11.1155 9.0325C11.2065 9.24285 11.3178 9.4438 11.4479 9.6325C11.5355 9.7525 11.4479 9.8161 11.2823 9.8065C10.8883 9.70597 10.5467 9.4604 10.3259 9.1189Z" fill="#FF1280"/>
<path d="M15.4296 12.5152C13.8828 11.8948 13.332 11.3872 13.332 10.4392V10.1992L13.4628 10.2952C13.9536 10.6123 14.5227 10.7867 15.1068 10.7992C15.5132 10.8434 15.9148 10.9237 16.3068 11.0392C16.7286 11.1515 17.1094 11.3825 17.4038 11.7047C17.6982 12.027 17.8939 12.427 17.9676 12.8572C18.0156 13.1819 18.0156 13.5118 17.9676 13.8364C17.9163 14.0339 17.8354 14.2224 17.7276 14.3956V14.2996C17.7158 14.1307 17.6694 13.9661 17.5914 13.8158C17.5133 13.6656 17.4053 13.5329 17.274 13.426C16.7145 13.0214 16.091 12.7135 15.4296 12.5152Z" fill="#FF1280"/>
<path d="M14.3373 12.7786C14.3181 12.6662 14.2917 12.5551 14.2581 12.4462V12.3262L14.3277 12.4054C14.4399 12.5395 14.5261 12.6933 14.5821 12.859C14.6304 12.9996 14.648 13.149 14.6337 13.297C14.6442 13.4414 14.6267 13.5864 14.5821 13.7242C14.5125 13.9195 14.3988 14.0961 14.2497 14.2402C13.9331 14.5458 13.5187 14.7299 13.0797 14.7598L12.4857 14.8126C12.0348 14.8151 11.5871 14.8896 11.1597 15.0334H11.0625C11.1934 14.9384 11.3342 14.8579 11.4825 14.7934C11.8569 14.6358 12.2508 14.5296 12.6537 14.4778C12.8902 14.45 13.1242 14.4035 13.3533 14.3386C13.684 14.2508 13.9692 14.0412 14.1517 13.7519C14.3343 13.4625 14.4006 13.1148 14.3373 12.7786Z" fill="#FF1280"/>
<path d="M15.0451 14.0097C14.8462 13.6217 14.7963 13.1743 14.9047 12.7521C14.9047 12.7077 14.9047 12.6729 14.9491 12.6729C14.9899 12.6825 15.0283 12.7004 15.0619 12.7257C15.1495 12.7869 15.3511 12.8997 15.8491 13.1709C16.313 13.3835 16.7337 13.6801 17.0899 14.0457C17.3093 14.3204 17.4511 14.6491 17.5003 14.9973C17.5484 15.3046 17.5484 15.6175 17.5003 15.9249C17.433 16.2582 17.2932 16.5728 17.0908 16.8461C16.8884 17.1194 16.6284 17.3449 16.3291 17.5065C16.2778 17.5401 16.2221 17.5664 16.1635 17.5845C16.1832 17.5278 16.2064 17.4725 16.2331 17.4189C16.3278 17.2323 16.3837 17.0285 16.3973 16.8198C16.4109 16.611 16.382 16.4017 16.3123 16.2045C16.1504 15.8061 15.9387 15.4299 15.6823 15.0849C15.4383 14.7461 15.2251 14.3863 15.0451 14.0097Z" fill="#FF1280"/>
<path d="M9.224 16.4223C9.77961 15.9438 10.452 15.6209 11.1728 15.4863C11.5052 15.4251 11.846 15.4251 12.1784 15.4863C12.5686 15.5803 12.9162 15.8021 13.166 16.1163C13.3672 16.4387 13.4904 16.8036 13.526 17.1819C13.5335 17.3421 13.5601 17.5008 13.6052 17.6547C13.6403 17.8959 13.7613 18.1162 13.946 18.2751C14.1135 18.3595 14.2984 18.4035 14.486 18.4035C14.6736 18.4035 14.8585 18.3595 15.026 18.2751C15.0695 18.2704 15.1133 18.2704 15.1568 18.2751C15.0529 18.3603 14.9416 18.4362 14.8244 18.5019C14.6539 18.597 14.4602 18.6423 14.2652 18.6327C14.069 18.6273 13.8776 18.5704 13.7103 18.4676C13.5431 18.3648 13.4058 18.2198 13.3124 18.0471C13.2126 17.8822 13.1252 17.7101 13.0508 17.5323C12.7796 16.9023 12.6392 16.7103 12.3164 16.5003C12.1879 16.4181 12.0418 16.3673 11.8901 16.3521C11.7383 16.3369 11.5851 16.3577 11.4428 16.4127C11.3003 16.4797 11.1899 16.6001 11.1353 16.7478C11.0808 16.8955 11.0865 17.0588 11.1512 17.2023C11.1731 17.2483 11.2005 17.2914 11.2328 17.3307C11.3544 17.4528 11.5092 17.5362 11.678 17.5707C11.7407 17.579 11.8045 17.5747 11.8656 17.5582C11.9267 17.5417 11.9839 17.5133 12.034 17.4746C12.0841 17.4359 12.126 17.3877 12.1574 17.3327C12.1888 17.2778 12.2089 17.2171 12.2168 17.1543C12.218 17.1327 12.218 17.1111 12.2168 17.0895C12.2227 17.0053 12.2 16.9215 12.1523 16.8517C12.1046 16.782 12.0347 16.7305 11.954 16.7055C11.714 16.5999 11.4392 16.7055 11.4476 16.9671C11.4452 17.0124 11.4574 17.0573 11.4825 17.0952C11.5075 17.133 11.5441 17.1617 11.5868 17.1771C11.5501 17.1666 11.5158 17.149 11.4859 17.1252C11.456 17.1014 11.4312 17.0719 11.4128 17.0384C11.3943 17.0049 11.3827 16.9681 11.3786 16.9302C11.3745 16.8922 11.378 16.8538 11.3888 16.8171C11.4055 16.7573 11.4413 16.7047 11.4908 16.6671C11.6051 16.5761 11.7508 16.5342 11.8959 16.5506C12.0411 16.5671 12.1738 16.6405 12.2648 16.7547C12.2862 16.7817 12.3051 16.8107 12.3212 16.8411C12.3776 17.0147 12.3776 17.2016 12.3212 17.3751C12.2538 17.5411 12.1269 17.676 11.9654 17.7534C11.8038 17.8309 11.6192 17.8453 11.4476 17.7939C11.1775 17.7193 10.9386 17.5599 10.766 17.3391C10.5741 17.1192 10.3378 16.9423 10.0727 16.8203C9.80749 16.6983 9.51948 16.6338 9.2276 16.6311H9.0752L9.224 16.4223Z" fill="#FF1280"/>
<path fill-rule="evenodd" clip-rule="evenodd" d="M5.11632 3.85388C6.94272 6.06548 9.73992 9.49988 9.87912 9.69308C10.0183 9.88628 9.94872 9.99788 9.75912 10.1035C9.62005 10.1724 9.46876 10.2132 9.31392 10.2235C9.17422 10.2165 9.04137 10.1609 8.93832 10.0663C8.86752 9.99548 8.56152 9.55028 7.87992 8.47508C7.35552 7.65308 6.91032 7.01588 6.90192 7.01588C7.1768 7.58007 7.48287 8.12852 7.81872 8.65868C8.11534 9.14116 8.38379 9.64039 8.62272 10.1539C8.62272 10.2583 8.62272 10.3111 8.46552 10.4503C8.22797 10.7521 8.09602 11.1235 8.08992 11.5075C7.98384 12.1657 7.67901 12.7758 7.21632 13.2559C7.01938 13.4661 6.85222 13.7023 6.71952 13.9579C6.6151 14.1479 6.56098 14.3615 6.56232 14.5783C6.54545 14.8384 6.57802 15.0994 6.65832 15.3475C6.74822 15.609 6.87642 15.8556 7.03872 16.0795C7.1693 16.2491 7.26698 16.4416 7.32672 16.6471C7.32672 16.7083 7.32672 16.7083 7.62432 16.6471C8.19571 16.5483 8.72674 16.2876 9.15432 15.8959C9.24059 15.8233 9.30763 15.7306 9.34949 15.626C9.39136 15.5213 9.40675 15.4079 9.39432 15.2959C9.40498 15.1856 9.38722 15.0745 9.34272 14.9731C9.21325 14.7469 9.02225 14.5622 8.79192 14.4403C8.62554 14.3521 8.48107 14.2278 8.36913 14.0764C8.25719 13.925 8.18064 13.7504 8.14512 13.5655C8.12881 13.2694 8.20019 12.9752 8.35032 12.7195C8.56065 12.3418 8.6775 11.9192 8.69112 11.4871C8.69112 11.1631 8.75232 11.0239 8.84832 10.9267C8.90397 10.8693 8.97053 10.8236 9.0441 10.7922C9.11767 10.7609 9.19676 10.7446 9.27672 10.7443C9.59851 10.7267 9.90553 10.6035 10.1503 10.3939C10.2326 10.324 10.2988 10.237 10.3442 10.139C10.3895 10.041 10.4131 9.93429 10.4131 9.82628V9.64028L10.3075 9.53468C9.95952 9.11948 4.85352 3.52148 4.85352 3.52148C4.85352 3.52148 4.96752 3.67028 5.11632 3.85388ZM7.51632 14.9623C7.55415 14.8903 7.5643 14.807 7.54484 14.728C7.52538 14.6491 7.47767 14.58 7.41072 14.5339C7.27992 14.4475 7.07952 14.4823 7.07952 14.6047C7.07886 14.6228 7.08464 14.6406 7.09584 14.6549C7.10705 14.6692 7.12294 14.679 7.14072 14.6827C7.21032 14.6827 7.21872 14.7535 7.14072 14.8399C7.12499 14.8534 7.11237 14.8702 7.10372 14.889C7.09506 14.9079 7.09058 14.9283 7.09058 14.9491C7.09058 14.9698 7.09506 14.9903 7.10372 15.0092C7.11237 15.028 7.12499 15.0448 7.14072 15.0583C7.16169 15.0794 7.18664 15.0962 7.21414 15.1077C7.24164 15.1191 7.27113 15.125 7.30092 15.125C7.3307 15.125 7.3602 15.1191 7.38769 15.1077C7.41519 15.0962 7.44014 15.0794 7.46112 15.0583C7.48805 15.0314 7.5082 14.9985 7.51992 14.9623H7.51632Z" fill="#FF1280"/>
<path fill-rule="evenodd" clip-rule="evenodd" d="M10.6798 10.8549C10.5782 10.8934 10.4871 10.9554 10.4141 11.036C10.3411 11.1165 10.2882 11.2132 10.2598 11.3181C10.2286 11.4592 10.2442 11.6066 10.3042 11.7381C10.3774 11.8425 10.4566 11.8797 10.6798 11.8797C11.1166 11.8797 11.4838 11.6877 11.5534 11.4609C11.5548 11.344 11.5226 11.2292 11.4607 11.1301C11.3988 11.031 11.3098 10.9517 11.2042 10.9017C11.0399 10.8264 10.8548 10.8099 10.6798 10.8549ZM11.1862 11.2401C11.2116 11.2023 11.2213 11.1561 11.2132 11.1113C11.2052 11.0665 11.18 11.0266 11.143 11.0001C11.1321 10.9925 11.1204 10.9861 11.1082 10.9809C10.8982 10.8501 10.5754 10.9809 10.5754 11.1645C10.5754 11.3481 10.741 11.3745 10.8982 11.3745C11.0062 11.3669 11.1073 11.3189 11.1814 11.2401H11.1862Z" fill="#FF1280"/>
</svg>
