<svg width="24" height="24" viewBox="0 0 24 24" fill="none" xmlns="http:
<g clip-path="url(#clip0_16364_5330)">
<path d="M12 24C18.6274 24 24 18.6274 24 12C24 5.37258 18.6274 0 12 0C5.37258 0 0 5.37258 0 12C0 18.6274 5.37258 24 12 24Z" fill="#0868FF"/>
<path d="M13.092 18.7596C12.7314 18.7911 12.3682 18.7491 12.0244 18.636C11.6805 18.523 11.3632 18.3413 11.0916 18.102C10.7053 17.7311 10.4796 17.2237 10.4628 16.6884C10.4603 16.5258 10.4991 16.3651 10.5756 16.2216C10.6417 16.0873 10.7444 15.9746 10.872 15.8964C11.0167 15.823 11.1766 15.7848 11.3388 15.7848C11.501 15.7848 11.661 15.823 11.8056 15.8964C11.9327 15.9647 12.0379 16.0674 12.1092 16.1928C12.1858 16.3363 12.2246 16.497 12.222 16.6596C12.2296 16.856 12.1727 17.0494 12.06 17.2104C11.9694 17.3461 11.8345 17.4462 11.6784 17.4936C11.8299 17.6817 12.042 17.8115 12.2784 17.8608C12.5538 17.9551 12.8418 18.0077 13.1328 18.0168C13.5097 18.0265 13.8795 17.9129 14.186 17.6933C14.4924 17.4737 14.7189 17.16 14.8308 16.8C15.1428 15.9003 15.1428 14.9217 14.8308 14.022C14.6979 13.6599 14.4495 13.3517 14.124 13.1448C13.8262 12.9548 13.4801 12.8545 13.1268 12.8556C12.8199 12.8833 12.5242 12.985 12.2652 13.152L11.622 13.47V13.152L14.502 9.2856H10.4628V13.2792C10.456 13.569 10.5344 13.8544 10.6884 14.1C10.7664 14.2133 10.874 14.3031 10.9995 14.3594C11.125 14.4157 11.2635 14.4364 11.4 14.4192C11.64 14.4153 11.8716 14.3308 12.0576 14.1792C12.2748 14.0215 12.4635 13.8279 12.6156 13.6068C12.6311 13.5709 12.6554 13.5395 12.6864 13.5156C12.6997 13.5031 12.7154 13.4935 12.7325 13.4873C12.7496 13.4811 12.7678 13.4785 12.786 13.4796C12.8514 13.4861 12.9127 13.5144 12.96 13.56C13.0294 13.6321 13.0674 13.7288 13.0656 13.8288C13.0575 13.8977 13.0459 13.9662 13.0308 14.034C12.8812 14.3782 12.6359 14.6723 12.324 14.8812C12.0415 15.0743 11.7063 15.1757 11.364 15.1716C10.7207 15.242 10.0753 15.0595 9.56402 14.6628C9.3909 14.4724 9.25781 14.2492 9.17267 14.0063C9.08754 13.7635 9.05208 13.506 9.06842 13.2492V9.2652H7.02002V8.52H9.06002V6.8124L8.59442 6.3456V6H9.96002L10.4688 6.2688V8.5488H15.7488L16.2792 9.072L13.0392 12.3312C13.2328 12.2507 13.4376 12.2005 13.6464 12.1824C14.0639 12.199 14.4713 12.3155 14.8344 12.522C15.2533 12.7199 15.6065 13.0339 15.852 13.4268C16.0668 13.7478 16.2224 14.1046 16.3116 14.4804C16.3819 14.7887 16.4177 15.1038 16.4184 15.42C16.422 16.0247 16.2865 16.6221 16.0224 17.166C15.7723 17.6921 15.3485 18.1159 14.8224 18.366C14.2841 18.63 13.6916 18.7648 13.092 18.7596Z" fill="white"/>
</g>
<defs>
<clipPath id="clip0_16364_5330">
<rect width="24" height="24" fill="white"/>
</clipPath>
</defs>
</svg>
