<svg width="24" height="24" viewBox="0 0 24 24" fill="none" xmlns="http:
<g clip-path="url(#clip0_16364_5326)">
<path d="M12 24C18.6274 24 24 18.6274 24 12C24 5.37258 18.6274 0 12 0C5.37258 0 0 5.37258 0 12C0 18.6274 5.37258 24 12 24Z" fill="#59AF99"/>
<path d="M13.2456 10.5229V9.10572H16.47V6.87012H7.52158V9.10572H10.7544V10.5229C8.04598 10.6537 6.01318 11.1973 6.01318 11.8429C6.01318 12.4885 8.04358 13.0345 10.7544 13.1629V17.8429H13.2456V13.1629C15.954 13.0333 17.9868 12.4897 17.9868 11.8429C17.9868 11.1961 15.96 10.6537 13.2456 10.5229ZM12 12.7501C9.06718 12.7501 6.68998 12.2965 6.68998 11.7505C6.68998 11.2813 8.42158 10.8865 10.752 10.7809V12.3817C11.1528 12.3997 11.5692 12.4105 11.9976 12.4105C12.426 12.4105 12.8448 12.3997 13.2432 12.3817V10.7809C15.5736 10.8865 17.3052 11.2813 17.3052 11.7505C17.31 12.3025 14.9328 12.7501 12 12.7501Z" fill="white"/>
</g>
<defs>
<clipPath id="clip0_16364_5326">
<rect width="24" height="24" fill="white"/>
</clipPath>
</defs>
</svg>
