<svg width="24" height="24" viewBox="0 0 24 24" fill="none" xmlns="http:
<g clip-path="url(#clip0_16364_5346)">
<path d="M12 24C18.6274 24 24 18.6274 24 12C24 5.37258 18.6274 0 12 0C5.37258 0 0 5.37258 0 12C0 18.6274 5.37258 24 12 24Z" fill="#1A5AFF"/>
<path d="M17.0753 7.84863V11.2086H13.6793V18.0006H10.3193V11.073C10.3193 10.2183 10.6587 9.39851 11.2629 8.79389C11.8671 8.18926 12.6866 7.84927 13.5413 7.84863H17.0753Z" fill="white"/>
<path d="M10.3198 7.84863C10.3198 8.73976 9.96583 9.59439 9.33571 10.2245C8.70558 10.8546 7.85096 11.2086 6.95983 11.2086H6.92383V7.84863H10.3198Z" fill="white"/>
</g>
<defs>
<clipPath id="clip0_16364_5346">
<rect width="24" height="24" fill="white"/>
</clipPath>
</defs>
</svg>
