<svg width="24" height="24" viewBox="0 0 24 24" fill="none" xmlns="http:
<path d="M12 24C18.6274 24 24 18.6274 24 12C24 5.37258 18.6274 0 12 0C5.37258 0 0 5.37258 0 12C0 18.6274 5.37258 24 12 24Z" fill="#2E79CC"/>
<path d="M15.1103 13.669C15.1103 12.0274 14.1311 11.4598 12.1655 11.2318C10.7663 11.0398 10.4855 10.6726 10.4855 10.009C10.4855 9.34542 10.9571 8.92902 11.8919 8.92902C12.2256 8.87679 12.567 8.94836 12.8516 9.13025C13.1363 9.31214 13.3447 9.59181 13.4375 9.91662C13.4619 9.98569 13.5068 10.0457 13.5662 10.0886C13.6256 10.1314 13.6966 10.1552 13.7699 10.1566H14.5055C14.5902 10.157 14.6717 10.1241 14.7324 10.0651C14.7932 10.0061 14.8285 9.9257 14.8307 9.84102V9.81942C14.741 9.31173 14.4857 8.84802 14.1047 8.50068C13.7238 8.15334 13.2385 7.94192 12.7247 7.89942V6.73302C12.7247 6.54822 12.5855 6.40902 12.3503 6.35742H11.6135C11.4299 6.35742 11.2895 6.49662 11.2451 6.73302V7.81302C10.6442 7.83635 10.0742 8.08518 9.64854 8.50994C9.2229 8.93469 8.97288 9.5042 8.94829 10.105C8.94829 11.6518 9.88309 12.265 11.8487 12.4978C13.1591 12.7258 13.5863 13.0138 13.5863 13.7566C13.5863 14.4994 12.9311 15.0238 12.0407 15.0238C10.8179 15.0238 10.3991 14.5078 10.2587 13.8082C10.2447 13.7303 10.204 13.6598 10.1435 13.6087C10.083 13.5577 10.0066 13.5293 9.92749 13.5286H9.16189C9.12028 13.5277 9.0789 13.5349 9.0401 13.55C9.00129 13.565 8.96584 13.5875 8.93575 13.6163C8.90566 13.645 8.88153 13.6794 8.86474 13.7175C8.84795 13.7556 8.83883 13.7966 8.83789 13.8382V13.897C8.92223 14.5063 9.21876 15.0663 9.67531 15.4786C10.1319 15.8908 10.7192 16.1288 11.3339 16.1506V17.281C11.3339 17.4658 11.4731 17.605 11.7095 17.6494H12.4451C12.5419 17.6444 12.6335 17.6042 12.7026 17.5363C12.7718 17.4685 12.8138 17.3777 12.8207 17.281V16.1554C13.4469 16.0997 14.0309 15.8163 14.4624 15.359C14.8938 14.9018 15.1426 14.3022 15.1619 13.6738L15.1103 13.669Z" fill="white"/>
<path d="M9.61345 18.5575C8.2571 18.0682 7.08464 17.1726 6.2559 15.9927C5.42716 14.8128 4.98248 13.406 4.98248 11.9641C4.98248 10.5222 5.42716 9.11539 6.2559 7.93546C7.08464 6.75554 8.2571 5.85991 9.61345 5.37067C9.70263 5.33001 9.77723 5.26303 9.82721 5.17872C9.87719 5.09441 9.90017 4.99683 9.89305 4.89907V4.26547C9.89685 4.18121 9.87094 4.09828 9.81984 4.03117C9.76874 3.96406 9.69569 3.91703 9.61345 3.89827C9.54559 3.89037 9.47728 3.90884 9.42265 3.94987C7.71811 4.4925 6.23036 5.56328 5.1746 7.00733C4.11884 8.45138 3.5498 10.1938 3.5498 11.9827C3.5498 13.7715 4.11884 15.514 5.1746 16.958C6.23036 18.4021 7.71811 19.4728 9.42265 20.0155C9.48822 20.054 9.56639 20.0648 9.63997 20.0457C9.71355 20.0266 9.77652 19.979 9.81505 19.9135C9.83155 19.8856 9.84331 19.8552 9.84985 19.8235C9.89305 19.7803 9.89305 19.7359 9.89305 19.6399V18.9847C9.88003 18.8975 9.84829 18.8142 9.80003 18.7405C9.75177 18.6667 9.68812 18.6043 9.61345 18.5575ZM14.5767 3.94147C14.513 3.90304 14.4367 3.89144 14.3644 3.90921C14.2922 3.92699 14.23 3.97268 14.1915 4.03627C14.1744 4.06389 14.1627 4.0944 14.1567 4.12627C14.1123 4.17787 14.1123 4.22227 14.1123 4.31707V4.97227C14.1202 5.06591 14.1496 5.15647 14.1981 5.23698C14.2465 5.31749 14.3128 5.3858 14.3919 5.43667C15.7409 5.93017 16.9058 6.82625 17.7288 8.00361C18.5517 9.18098 18.9931 10.5828 18.9931 12.0193C18.9931 13.4558 18.5517 14.8576 17.7288 16.0349C16.9058 17.2123 15.7409 18.1084 14.3919 18.6019C14.3019 18.6415 14.2266 18.7083 14.1765 18.7929C14.1264 18.8774 14.1039 18.9755 14.1123 19.0735V19.7287C14.1064 19.8143 14.1314 19.8993 14.1826 19.9681C14.2339 20.037 14.3081 20.0853 14.3919 20.1043C14.4577 20.1105 14.5235 20.0921 14.5767 20.0527C16.2823 19.5046 17.77 18.4293 18.8255 16.9816C19.8809 15.534 20.4496 13.7886 20.4496 11.9971C20.4496 10.2055 19.8809 8.46018 18.8255 7.0125C17.77 5.56482 16.2823 4.48951 14.5767 3.94147Z" fill="white"/>
</svg>
