<svg width="24" height="24" viewBox="0 0 24 24" fill="none" xmlns="http:
<g clip-path="url(#clip0_16364_5338)">
<path d="M12 24C18.6274 24 24 18.6274 24 12C24 5.37258 18.6274 0 12 0C5.37258 0 0 5.37258 0 12C0 18.6274 5.37258 24 12 24Z" fill="#0089CD"/>
<path fill-rule="evenodd" clip-rule="evenodd" d="M16.8313 8.46985C16.7058 8.23078 16.5014 8.04252 16.2529 7.93705C16.0297 7.82339 15.7833 7.76262 15.5329 7.75945H8.5285C8.26413 7.74295 8.00076 7.80472 7.7713 7.93705C7.62615 7.98474 7.49197 8.06087 7.37658 8.161C7.2612 8.26114 7.16694 8.38327 7.0993 8.52025C6.94836 8.77643 6.8828 9.07397 6.91209 9.36985C6.93358 9.64306 7.03082 9.90487 7.19289 10.1259L11.5357 17.7099C11.5899 17.7892 11.6623 17.8543 11.7468 17.8999C11.8314 17.9454 11.9257 17.9699 12.0217 17.9715C12.1205 17.9797 12.2196 17.9594 12.3072 17.9131C12.3948 17.8667 12.4673 17.7962 12.5161 17.7099L16.8781 10.1259C17.0314 9.88707 17.1064 9.60647 17.0929 9.32305C17.0787 9.0212 16.9887 8.72779 16.8313 8.46985ZM11.4709 15.3435L8.1265 9.50665C8.0401 9.32905 7.99569 9.24025 7.99569 9.24025C7.98315 9.16101 7.99887 9.07988 8.0401 9.01105C8.07357 8.93076 8.1374 8.86693 8.2177 8.83345H11.4709V15.3435ZM15.9349 9.27265C15.9529 9.36216 15.9529 9.45435 15.9349 9.54385L12.5161 15.3723V8.87185H15.4861C15.5911 8.86034 15.6973 8.87604 15.7945 8.91745L15.8413 8.96425C15.8881 8.96425 15.8881 9.04825 15.9349 9.04825C15.9565 9.1215 15.9565 9.19941 15.9349 9.27265Z" fill="white"/>
</g>
<defs>
<clipPath id="clip0_16364_5338">
<rect width="24" height="24" fill="white"/>
</clipPath>
</defs>
</svg>
