<svg width="24" height="24" viewBox="0 0 24 24" fill="none" xmlns="http:
<g clip-path="url(#clip0_16364_5342)">
<path d="M12 24C18.6274 24 24 18.6274 24 12C24 5.37258 18.6274 0 12 0C5.37258 0 0 5.37258 0 12C0 18.6274 5.37258 24 12 24Z" fill="#FF0E12"/>
<path d="M18 10.3698C17.4 9.81423 16.5684 8.97063 15.8892 8.36943L15.8496 8.33703C15.7817 8.28671 15.7069 8.2463 15.6276 8.21703C13.9956 7.91223 6.396 6.48783 6.252 6.50703C6.20979 6.51917 6.17138 6.54189 6.1404 6.57303H6.102C6.05603 6.61896 6.02114 6.67478 6 6.73623V6.89943C6.8556 9.28503 10.2336 17.0802 10.9008 18.9102C10.9392 19.0302 11.0112 19.2702 11.1552 19.2822H11.1876C11.2668 19.2822 11.5872 18.8574 11.5872 18.8574C11.5872 18.8574 17.376 11.8662 17.964 11.1474C18.0368 11.0545 18.1026 10.9562 18.1608 10.8534C18.1834 10.7659 18.1803 10.6737 18.1518 10.5879C18.1233 10.5021 18.0705 10.4264 18 10.3698ZM13.0596 11.1858L15.5436 9.13503L16.9836 10.4934L13.0596 11.1858ZM12.0996 11.0562L7.8396 7.56063L14.7336 8.86743L12.0996 11.0562ZM12.4848 11.9706L16.8504 11.265L11.8656 17.2806L12.4848 11.9706ZM7.2588 7.91223L11.7408 11.7162L11.088 17.2806L7.2588 7.91223Z" fill="white"/>
</g>
<defs>
<clipPath id="clip0_16364_5342">
<rect width="24" height="24" fill="white"/>
</clipPath>
</defs>
</svg>
