<svg width="20" height="20" viewBox="0 0 20 20" fill="none" xmlns="http:
<path d="M19.9984 4.2555L19.9408 5.45275C19.9037 6.25092 19.8667 7.04497 19.8297 7.84313C19.8214 8.02827 19.7885 8.2669 19.5993 8.45204C19.5499 8.50141 19.4882 8.55078 19.4182 8.58781C19.3154 8.64541 19.2125 8.6701 19.1138 8.6701C18.8752 8.6701 18.7188 8.51376 18.6077 8.40267L18.3485 8.14347C18.1387 7.93365 17.933 7.72793 17.7232 7.51811C17.7026 7.49754 17.682 7.48108 17.6615 7.46051L13.6254 11.4966C13.4238 11.6982 13.1564 11.8093 12.8766 11.8093C12.5968 11.8093 12.3253 11.6982 12.1278 11.4966L9.43295 8.80175L2.01496 16.2156C1.81336 16.4172 1.55004 16.5283 1.26616 16.5283C0.982278 16.5283 0.714851 16.4172 0.513253 16.2156L0.311655 16.014C-0.103885 15.5985 -0.103885 14.9279 0.311655 14.5123L8.67593 6.14806C8.87753 5.94646 9.14084 5.83538 9.42472 5.83538C9.70861 5.83538 9.97603 5.94646 10.1776 6.14806L12.8725 8.8429L15.9582 5.75721C15.7401 5.54326 15.5262 5.32932 15.3122 5.11127L15.0037 4.8027C14.8802 4.67927 14.6251 4.42419 14.8103 4.03333C14.8473 3.95516 14.8926 3.88934 14.9461 3.83585C15.123 3.65894 15.3492 3.6466 15.5097 3.64248C16.7358 3.58488 17.9659 3.52728 19.192 3.46968C19.2125 3.46968 19.2372 3.46968 19.2619 3.46968C19.5046 3.46968 19.6939 3.53551 19.8214 3.67128C19.9531 3.80705 20.0107 4.00042 19.9984 4.2555Z" fill="#17FF13"/>
</svg>
