<svg width="17" height="16" viewBox="0 0 17 16" fill="none" xmlns="http:
<g clip-path="url(#clip0_16468_4423)">
<path fill-rule="evenodd" clip-rule="evenodd" d="M8.2501 0.000976562C6.04091 0.000976562 4.25 1.79188 4.25 4.00107C4.25 6.21026 6.04091 8.00117 8.2501 8.00117C10.4593 8.00117 12.2502 6.21026 12.2502 4.00107C12.2502 1.79188 10.4593 0.000976562 8.2501 0.000976562Z" fill="white"/>
<path fill-rule="evenodd" clip-rule="evenodd" d="M5.84993 8.80078C4.51971 8.80078 3.24045 9.4076 2.49077 10.3211C2.11029 10.7848 1.8428 11.3585 1.81952 11.9944C1.79573 12.6438 2.03013 13.2775 2.51352 13.8306C3.6916 15.1782 5.57254 16.001 8.24999 16.001C10.9274 16.001 12.8084 15.1782 13.9865 13.8306C14.4698 13.2775 14.7042 12.6438 14.6805 11.9944C14.6572 11.3585 14.3897 10.7848 14.0093 10.3211C13.2596 9.4076 11.9802 8.80078 10.6501 8.80078H5.84993Z" fill="white"/>
</g>
<defs>
<clipPath id="clip0_16468_4423">
<rect width="16" height="16" fill="white" transform="translate(0.25)"/>
</clipPath>
</defs>
</svg>
