<svg width="17" height="16" viewBox="0 0 17 16" fill="none" xmlns="http:
<g clip-path="url(#clip0_16468_4375)">
<path fill-rule="evenodd" clip-rule="evenodd" d="M4.18456 1.03412C4.49699 0.721701 5.00351 0.721701 5.31594 1.03412L8.51593 4.23412C8.82833 4.54655 8.82833 5.05307 8.51593 5.3655C8.20353 5.67792 7.69697 5.67792 7.38457 5.3655L5.55025 3.53118V14.3998C5.55025 14.8417 5.19207 15.1998 4.75025 15.1998C4.30842 15.1998 3.95025 14.8417 3.95025 14.3998V3.53118L2.11593 5.3655C1.80351 5.67792 1.29698 5.67792 0.984556 5.3655C0.67214 5.05307 0.67214 4.54655 0.984556 4.23412L4.18456 1.03412Z" fill="white"/>
<path fill-rule="evenodd" clip-rule="evenodd" d="M13.3159 14.9655C13.0035 15.2779 12.4969 15.2779 12.1845 14.9655L8.98454 11.7655C8.67214 11.4531 8.67214 10.9465 8.98454 10.6341C9.29694 10.3217 9.80351 10.3217 10.1159 10.6341L11.9502 12.4685V1.59981C11.9502 1.15798 12.3084 0.799805 12.7502 0.799805C13.1921 0.799805 13.5502 1.15798 13.5502 1.59981V12.4685L15.3846 10.6341C15.697 10.3217 16.2035 10.3217 16.5159 10.6341C16.8283 10.9465 16.8283 11.4531 16.5159 11.7655L13.3159 14.9655Z" fill="white"/>
</g>
<defs>
<clipPath id="clip0_16468_4375">
<rect width="16" height="16" fill="white" transform="translate(0.75)"/>
</clipPath>
</defs>
</svg>
