<svg width="24" height="24" viewBox="0 0 24 24" fill="none" xmlns="http:
<g clip-path="url(#clip0_16273_1220)">
<path d="M3 9.21913C3 4.38462 7.04884 0.5 12 0.5C16.9512 0.5 21 4.38462 21 9.21913C21 12.0439 19.8323 14.5924 17.6461 16.1997C17.4953 16.3107 17.404 16.4482 17.372 16.5834C17.3076 16.857 17.2369 17.1702 17.1642 17.5062C17.1282 17.6724 16.9814 17.7914 16.8114 17.7914H7.18865C7.01856 17.7914 6.87179 17.6724 6.8358 17.5062C6.76306 17.1702 6.69235 16.857 6.6279 16.5834C6.5961 16.4482 6.50477 16.3107 6.35388 16.1997C4.16776 14.5924 3 12.0439 3 9.21913Z" fill="#4674FF"/>
<path d="M7.68043 19.5918C7.4562 19.5918 7.2867 19.7947 7.32402 20.0159C7.43673 20.6837 7.51904 21.2802 7.54398 21.6923C7.61956 22.9417 8.53986 23.971 9.77043 24.2368L10.0056 24.2876C11.3189 24.5713 12.6807 24.5713 13.994 24.2876L14.2292 24.2368C15.4598 23.971 16.38 22.9417 16.4556 21.6923C16.4806 21.2802 16.5629 20.6837 16.6756 20.0159C16.7129 19.7947 16.5434 19.5918 16.3192 19.5918H7.68043Z" fill="#4674FF"/>
</g>
<defs>
<clipPath id="clip0_16273_1220">
<rect width="24" height="24" fill="white"/>
</clipPath>
</defs>
</svg>
