<svg width="20" height="20" viewBox="0 0 20 20" fill="none" xmlns="http:
<path d="M19.9984 15.7425L19.9408 14.5453C19.9037 13.7471 19.8667 12.9531 19.8297 12.1549C19.8214 11.9698 19.7885 11.7311 19.5993 11.546C19.5499 11.4966 19.4882 11.4473 19.4182 11.4102C19.3154 11.3526 19.2125 11.3279 19.1138 11.3279C18.8752 11.3279 18.7188 11.4843 18.6077 11.5954L18.3485 11.8546C18.1387 12.0644 17.933 12.2701 17.7232 12.4799C17.7026 12.5005 17.682 12.517 17.6615 12.5375L13.6254 8.50146C13.4238 8.29986 13.1564 8.18877 12.8766 8.18877C12.5968 8.18877 12.3253 8.29986 12.1278 8.50146L9.43295 11.1963L2.01496 3.78241C1.81336 3.58081 1.55004 3.46973 1.26616 3.46973C0.982278 3.46973 0.714851 3.58081 0.513253 3.78241L0.311655 3.98401C-0.103885 4.39955 -0.103885 5.07017 0.311655 5.48571L8.67593 13.85C8.87753 14.0516 9.14084 14.1627 9.42472 14.1627C9.70861 14.1627 9.97603 14.0516 10.1776 13.85L12.8725 11.1552L15.9582 14.2408C15.7401 14.4548 15.5262 14.6687 15.3122 14.8868L15.0037 15.1953C14.8802 15.3188 14.6251 15.5739 14.8103 15.9647C14.8473 16.0429 14.8926 16.1087 14.9461 16.1622C15.123 16.3391 15.3492 16.3515 15.5097 16.3556C16.7358 16.4132 17.9659 16.4708 19.192 16.5284C19.2125 16.5284 19.2372 16.5284 19.2619 16.5284C19.5046 16.5284 19.6939 16.4625 19.8214 16.3268C19.9531 16.191 20.0107 15.9976 19.9984 15.7425Z" fill="#FF1313"/>
</svg>
