<svg width="29" height="26" viewBox="0 0 29 26" fill="none" xmlns="http:
<path d="M28.5 5.23309V20.9831C28.5 23.794 26.9631 25.0879 24.1374 25.0879L13.1763 25.0829C11.2131 25.0829 10.0432 24.5723 8.78399 23.1544L1.8534 15.6587C0.822237 14.5135 0.5 13.7997 0.5 12.9817C0.5 12.1686 0.81728 11.4697 1.8534 10.3096L8.77903 2.76922C10.0333 1.35633 11.2131 0.910156 13.1763 0.910156H24.1374C26.9631 0.910156 28.5 2.4222 28.5 5.23309ZM20.0177 8.01425L16.8697 11.1424L13.7464 8.02417C13.4837 7.76638 13.1813 7.63253 12.7847 7.63253C12.041 7.63253 11.4611 8.20264 11.4611 8.96113C11.4611 9.29825 11.6048 9.63037 11.8626 9.88326L14.9908 13.0214L11.8626 16.1594C11.6048 16.4123 11.4611 16.7395 11.4611 17.0815C11.4611 17.8351 12.041 18.4151 12.7847 18.4151C13.1813 18.4151 13.5035 18.2912 13.7712 18.0235L16.8697 14.9102L19.9879 18.0235C20.2407 18.2912 20.5729 18.4151 20.9695 18.4151C21.7132 18.4151 22.2982 17.8351 22.2982 17.0815C22.2982 16.7345 22.1643 16.4023 21.9015 16.1545L18.7734 13.0214L21.9065 9.87328C22.1791 9.61057 22.3031 9.28833 22.3031 8.94626C22.3031 8.19768 21.7231 7.62261 20.9844 7.62261C20.5927 7.62261 20.2854 7.74655 20.0177 8.01425Z" fill="white" fill-opacity="0.3"/>
</svg>
