<svg width="25" height="24" viewBox="0 0 25 24" fill="none" xmlns="http:
<path fill-rule="evenodd" clip-rule="evenodd" d="M7.40808 1.83297C7.55543 1.2436 8.15264 0.885273 8.742 1.03261L13.1419 2.13259C13.4889 2.21934 13.7721 2.46943 13.9011 2.80308C14.0301 3.13671 13.9887 3.51224 13.7904 3.80987L11.5905 7.1098C11.2534 7.61527 10.5705 7.75186 10.065 7.41488C9.55954 7.0779 9.42295 6.39496 9.75993 5.88949L10.5899 4.64446C7.45326 5.61794 5.17529 8.5427 5.17529 11.9995C5.17529 14.2017 6.09829 16.1864 7.58162 17.5911C8.02271 18.0089 8.04164 18.7051 7.62391 19.1462C7.20618 19.5873 6.50998 19.6062 6.06889 19.1885C4.16514 17.3855 2.97534 14.8305 2.97534 11.9995C2.97534 8.1678 5.15225 4.84451 8.33676 3.19896L8.20843 3.16687C7.61907 3.01954 7.26074 2.42232 7.40808 1.83297ZM18.5091 5.151C18.9502 4.73327 19.6463 4.7522 20.0641 5.19329C21.7433 6.96643 22.7749 9.36369 22.7749 11.9995C22.7749 15.9162 20.5004 19.3016 17.2002 20.907C17.6758 21.1342 17.9324 21.6778 17.7826 22.2015C17.6158 22.7855 17.0069 23.1238 16.4229 22.9569L12.5729 21.8569C12.2351 21.7605 11.9639 21.5085 11.8427 21.1788C11.7215 20.8491 11.765 20.4814 11.9598 20.1892L14.1598 16.8892C14.4968 16.3838 15.1798 16.2472 15.6852 16.5841C16.1907 16.9211 16.3273 17.6041 15.9903 18.1096L15.1603 19.3546C18.297 18.3811 20.5749 15.4563 20.5749 11.9995C20.5749 9.94851 19.7745 8.08687 18.4667 6.70602C18.0491 6.26494 18.068 5.56873 18.5091 5.151Z" fill="white"/>
</svg>
