<svg width="25" height="24" viewBox="0 0 25 24" fill="none" xmlns="http:
<path fill-rule="evenodd" clip-rule="evenodd" d="M12.651 1.99951C12.2337 1.99951 11.9222 2.22684 11.7454 2.38703C11.551 2.56325 11.3798 2.78627 11.2318 3.00922C10.9332 3.45935 10.6403 4.04744 10.3749 4.64619C9.83998 5.8528 9.35699 7.24017 9.10455 7.99755C9.10084 8.00866 9.08994 8.0174 9.07673 8.01784C8.28582 8.04458 6.8363 8.11551 5.57292 8.3008C4.94876 8.39233 4.32017 8.51854 3.82939 8.70129C3.58773 8.79127 3.3242 8.9147 3.10682 9.09378C2.88681 9.27502 2.625 9.59265 2.625 10.0507C2.625 10.3675 2.74486 10.6479 2.85335 10.8481C2.96964 11.0626 3.12333 11.2752 3.28772 11.4759C3.61722 11.8783 4.0529 12.3089 4.50335 12.7186C5.40855 13.5418 6.45683 14.3547 7.05324 14.8041C7.06265 14.8112 7.06703 14.823 7.06313 14.8358C6.83409 15.5878 6.43629 16.9636 6.18324 18.2398C6.05755 18.8736 5.96049 19.5171 5.94592 20.0605C5.93867 20.3308 5.95057 20.6107 6.00462 20.8673C6.05497 21.1062 6.16558 21.4417 6.4487 21.6918C6.76645 21.9727 7.14888 22.0099 7.41368 21.9935C7.68446 21.9768 7.95565 21.8984 8.19732 21.8072C8.68537 21.623 9.23628 21.3148 9.76451 20.982C10.8316 20.3098 11.9616 19.4372 12.6042 18.9241C12.6158 18.9148 12.6329 18.9145 12.6451 18.9243C13.2876 19.4378 14.4185 20.3109 15.4936 20.9837C16.0261 21.3168 16.5827 21.6251 17.0791 21.809C17.3256 21.9003 17.5995 21.9773 17.8728 21.9937C18.141 22.0097 18.5128 21.9721 18.8302 21.7115C19.1275 21.4674 19.251 21.1322 19.3083 20.8835C19.3687 20.6216 19.3827 20.3373 19.376 20.0648C19.3626 19.5174 19.2605 18.8715 19.1283 18.2378C18.8617 16.9615 18.4402 15.5852 18.1963 14.8301C18.192 14.8167 18.1966 14.8042 18.2063 14.7968C18.8057 14.3449 19.8517 13.5332 20.7538 12.712C21.2027 12.3034 21.6367 11.8739 21.9649 11.4727C22.1287 11.2724 22.2817 11.0603 22.3976 10.8463C22.5058 10.6465 22.625 10.3668 22.625 10.0507C22.625 9.59315 22.3638 9.27566 22.1439 9.09436C21.9268 8.91529 21.6635 8.79185 21.4222 8.70187C20.9321 8.51915 20.3043 8.39293 19.681 8.30137C18.4192 8.11603 16.9709 8.0449 16.1782 8.01801C16.1648 8.01755 16.1541 8.00885 16.1505 7.99765C15.9038 7.23801 15.4328 5.85184 14.9088 4.64689C14.6488 4.04905 14.361 3.46152 14.0662 3.01158C13.9202 2.78874 13.7504 2.56528 13.5567 2.3885C13.3801 2.22733 13.0689 1.99951 12.651 1.99951Z" fill="#666666"/>
</svg>
