<svg width="25" height="24" viewBox="0 0 25 24" fill="none" xmlns="http:
<path fill-rule="evenodd" clip-rule="evenodd" d="M7.10549 19.7C7.92549 18.82 9.17549 18.89 9.89549 19.85L10.9055 21.2C11.7155 22.27 13.0255 22.27 13.8355 21.2L14.8455 19.85C15.5655 18.89 16.8155 18.82 17.6355 19.7C19.4155 21.6 20.8655 20.97 20.8655 18.31V7.04C20.8755 3.01 19.9355 2 16.1555 2H8.59549C4.81549 2 3.87549 3.01 3.87549 7.04V18.3C3.87549 20.97 5.33549 21.59 7.10549 19.7ZM16.3755 7.75H8.37549C7.96549 7.75 7.62549 7.41 7.62549 7C7.62549 6.59 7.96549 6.25 8.37549 6.25H16.3755C16.7855 6.25 17.1255 6.59 17.1255 7C17.1255 7.41 16.7855 7.75 16.3755 7.75ZM9.37549 11.75H15.3755C15.7855 11.75 16.1255 11.41 16.1255 11C16.1255 10.59 15.7855 10.25 15.3755 10.25H9.37549C8.96549 10.25 8.62549 10.59 8.62549 11C8.62549 11.41 8.96549 11.75 9.37549 11.75Z" fill="#666666"/>
</svg>
